<svg xmlns="http://www.w3.org/2000/svg" xmlns:xlink="http://www.w3.org/1999/xlink" xmlns:lucid="lucid" width="2180" height="1340"><g transform="translate(-20 -20)" lucid:page-tab-id="0_0"><path d="M1098 66h614c4.42 0 8 3.58 8 8v1258c0 4.42-3.58 8-8 8H48c-4.42 0-8-3.58-8-8V48c0-4.42 3.58-8 8-8h992c4.42 0 11.18 1.65 15.1 3.7zM40 66h1058" stroke="#333" fill="#fff"/><use xlink:href="#a" transform="matrix(1,0,0,1,48,40) translate(404.25 16.6)"/><use xlink:href="#b" transform="matrix(1,0,0,1,52,74) translate(792.55 632.6)"/><path d="M453.15 79c0-4.42 3.58-8 8-8h836.75c4.4 0 8 3.58 8 8v28.93c0 4.42-3.6 8-8 8H461.15c-4.42 0-8-3.58-8-8z" stroke="#000" stroke-opacity="0" stroke-width="2" fill="#fff" fill-opacity="0"/><use xlink:href="#c" transform="matrix(1,0,0,1,457.1465527853434,75) translate(346.7174532828321 25.515742811573297)"/><use xlink:href="#d" transform="matrix(1,0,0,1,457.1465527853434,75) translate(429.0212763328775 25.515742811573297)"/><path d="M693.28 114.47h383.87M693.3 114.47h-1.02M1077.12 114.47h1.03" stroke="#b2b2b2" stroke-width="2" fill="none"/><path d="M453.15 122.04c0-4.4 3.58-8 8-8h837.7c4.42 0 8 3.6 8 8v2.85c0 4.4-3.58 8-8 8h-837.7c-4.42 0-8-3.6-8-8z" stroke="#000" stroke-opacity="0" stroke-width="2" fill="#fff" fill-opacity="0"/><use xlink:href="#e" transform="matrix(1,0,0,1,457.1465527853435,118.04441908712941) translate(242.0844949856843 16.000849973417758)"/><use xlink:href="#f" transform="matrix(1,0,0,1,457.1465527853435,118.04441908712941) translate(282.787092126683 16.000849973417758)"/><use xlink:href="#g" transform="matrix(1,0,0,1,457.1465527853435,118.04441908712941) translate(348.46628296784 16.000849973417758)"/><use xlink:href="#h" transform="matrix(1,0,0,1,457.1465527853435,118.04441908712941) translate(402.0734535205871 16.000849973417758)"/><use xlink:href="#i" transform="matrix(1,0,0,1,457.1465527853435,118.04441908712941) translate(450.9628230410822 16.000849973417758)"/><use xlink:href="#j" transform="matrix(1,0,0,1,457.1465527853435,118.04441908712941) translate(464.5149377709829 16.000849973417758)"/><use xlink:href="#k" transform="matrix(1,0,0,1,457.1465527853435,118.04441908712941) translate(545.7813731990905 16.000849973417758)"/><use xlink:href="#l" transform="matrix(1,0,0,1,457.1465527853435,118.04441908712941) translate(573.5331439770441 16.000849973417758)"/><path d="M700 148c0-4.42 3.58-8 8-8h344c4.42 0 8 3.58 8 8v269c0 4.42-3.58 8-8 8H708c-4.42 0-8-3.58-8-8z" stroke="#333" fill="#fff"/><path d="M700 177.6h360M700 323.1h360" stroke="#333" fill="none"/><use xlink:href="#m" transform="matrix(1,0,0,1,708.0000000000001,148) translate(138.05 14.6)"/><use xlink:href="#n" transform="matrix(1,0,0,1,712.0000000000001,185.6) translate(79.17500000000001 25.39999999999999)"/><use xlink:href="#o" transform="matrix(1,0,0,1,712.0000000000001,185.6) translate(90.12500000000001 25.39999999999999)"/><use xlink:href="#p" transform="matrix(1,0,0,1,712.0000000000001,185.6) translate(227.875 25.39999999999999)"/><use xlink:href="#q" transform="matrix(1,0,0,1,712.0000000000001,185.6) translate(237.875 25.39999999999999)"/><use xlink:href="#n" transform="matrix(1,0,0,1,712.0000000000001,185.6) translate(65.15 46.99999999999999)"/><use xlink:href="#r" transform="matrix(1,0,0,1,712.0000000000001,185.6) translate(76.10000000000001 46.99999999999999)"/><use xlink:href="#p" transform="matrix(1,0,0,1,712.0000000000001,185.6) translate(241.9 46.99999999999999)"/><use xlink:href="#q" transform="matrix(1,0,0,1,712.0000000000001,185.6) translate(251.9 46.99999999999999)"/><use xlink:href="#n" transform="matrix(1,0,0,1,712.0000000000001,185.6) translate(73.60000000000001 68.6)"/><use xlink:href="#s" transform="matrix(1,0,0,1,712.0000000000001,185.6) translate(84.55000000000001 68.6)"/><use xlink:href="#q" transform="matrix(1,0,0,1,712.0000000000001,185.6) translate(243.45 68.6)"/><use xlink:href="#n" transform="matrix(1,0,0,1,712.0000000000001,185.6) translate(35.47500000000002 90.20000000000002)"/><use xlink:href="#t" transform="matrix(1,0,0,1,712.0000000000001,185.6) translate(46.425000000000026 90.20000000000002)"/><use xlink:href="#u" transform="matrix(1,0,0,1,712.0000000000001,185.6) translate(246.575 90.20000000000002)"/><use xlink:href="#n" transform="matrix(1,0,0,1,712.0000000000001,185.6) translate(77.125 111.80000000000001)"/><use xlink:href="#v" transform="matrix(1,0,0,1,712.0000000000001,185.6) translate(88.075 111.80000000000001)"/><use xlink:href="#p" transform="matrix(1,0,0,1,712.0000000000001,185.6) translate(184.925 111.80000000000001)"/><use xlink:href="#w" transform="matrix(1,0,0,1,712.0000000000001,185.6) translate(194.925 111.80000000000001)"/><use xlink:href="#x" transform="matrix(1,0,0,1,712.0000000000001,331.1) translate(62.20000000000002 25.5)"/><use xlink:href="#y" transform="matrix(1,0,0,1,712.0000000000001,331.1) translate(25.149999999999977 47.1)"/><use xlink:href="#z" transform="matrix(1,0,0,1,712.0000000000001,331.1) translate(156.95 47.1)"/><use xlink:href="#A" transform="matrix(1,0,0,1,712.0000000000001,331.1) translate(20.525000000000006 68.7)"/><use xlink:href="#B" transform="matrix(1,0,0,1,712.0000000000001,331.1) translate(217.67499999999998 68.7)"/><path d="M80 644c0-4.42 3.58-8 8-8h144c4.42 0 8 3.58 8 8v140c0 4.42-3.58 8-8 8H88c-4.42 0-8-3.58-8-8z" stroke="#333" fill="#fff"/><path d="M80 673.6h160M80 732.7h160" stroke="#333" fill="none"/><use xlink:href="#C" transform="matrix(1,0,0,1,88,644) translate(19.049999999999997 14.6)"/><path d="M320 644c0-4.42 3.58-8 8-8h144c4.42 0 8 3.58 8 8v140c0 4.42-3.58 8-8 8H328c-4.42 0-8-3.58-8-8z" stroke="#333" fill="#fff"/><path d="M320 673.6h160m-160 59.1h160" stroke="#333" fill="none"/><use xlink:href="#D" transform="matrix(1,0,0,1,328.0000000000001,644) translate(26.099999999999994 14.6)"/><path d="M560 644c0-4.42 3.58-8 8-8h144c4.42 0 8 3.58 8 8v140c0 4.42-3.58 8-8 8H568c-4.42 0-8-3.58-8-8z" stroke="#333" fill="#fff"/><path d="M560 673.6h160m-160 59.1h160" stroke="#333" fill="none"/><use xlink:href="#E" transform="matrix(1,0,0,1,568,644) translate(14.649999999999991 14.6)"/><path d="M800 644c0-4.42 3.58-8 8-8h144c4.42 0 8 3.58 8 8v140c0 4.42-3.58 8-8 8H808c-4.42 0-8-3.58-8-8z" stroke="#333" fill="#fff"/><path d="M800 673.6h160m-160 59.1h160" stroke="#333" fill="none"/><use xlink:href="#F" transform="matrix(1,0,0,1,808.0000000000001,644) translate(6.574999999999989 14.6)"/><path d="M1040 644c0-4.42 3.58-8 8-8h144c4.42 0 8 3.58 8 8v140c0 4.42-3.58 8-8 8h-144c-4.42 0-8-3.58-8-8z" stroke="#333" fill="#fff"/><path d="M1040 673.6h160m-160 59.1h160" stroke="#333" fill="none"/><use xlink:href="#G" transform="matrix(1,0,0,1,1048,644) translate(18.074999999999996 14.6)"/><path d="M1280 644c0-4.42 3.58-8 8-8h144c4.42 0 8 3.58 8 8v140c0 4.42-3.58 8-8 8h-144c-4.42 0-8-3.58-8-8z" stroke="#333" fill="#fff"/><path d="M1280 673.6h160m-160 59.1h160" stroke="#333" fill="none"/><use xlink:href="#H" transform="matrix(1,0,0,1,1288,644) translate(4.625 14.6)"/><path d="M1520 644c0-4.42 3.58-8 8-8h144c4.42 0 8 3.58 8 8v140c0 4.42-3.58 8-8 8h-144c-4.42 0-8-3.58-8-8z" stroke="#333" fill="#fff"/><path d="M1520 673.6h160m-160 59.1h160" stroke="#333" fill="none"/><use xlink:href="#I" transform="matrix(1,0,0,1,1528,644) translate(3.2750000000000057 14.6)"/><path d="M700 1069c0-4.42 3.58-8 8-8h344c4.42 0 8 3.58 8 8v225c0 4.42-3.58 8-8 8H708c-4.42 0-8-3.58-8-8z" stroke="#333" fill="#fff"/><path d="M700 1120.2h360" stroke="#333" fill="none"/><use xlink:href="#J" transform="matrix(1,0,0,1,708.0000000000001,1069) translate(119.07499999999999 14.799999999999999)"/><use xlink:href="#K" transform="matrix(1,0,0,1,708.0000000000001,1069) translate(112.64999999999999 36.4)"/><use xlink:href="#L" transform="matrix(1,0,0,1,712.0000000000001,1128.2) translate(14.975000000000023 65)"/><use xlink:href="#M" transform="matrix(1,0,0,1,712.0000000000001,1128.2) translate(30.475000000000023 65)"/><use xlink:href="#N" transform="matrix(1,0,0,1,712.0000000000001,1128.2) translate(1.2750000000000057 86.60000000000001)"/><use xlink:href="#O" transform="matrix(1,0,0,1,712.0000000000001,1128.2) translate(172.07500000000002 86.60000000000001)"/><use xlink:href="#p" transform="matrix(1,0,0,1,712.0000000000001,1128.2) translate(139.55 108.20000000000002)"/><use xlink:href="#P" transform="matrix(1,0,0,1,712.0000000000001,1128.2) translate(149.55 108.20000000000002)"/><path d="M80 328c0-4.42 3.58-8 8-8h224c4.42 0 8 3.58 8 8v105c0 4.42-3.58 8-8 8H88c-4.42 0-8-3.58-8-8z" stroke="#333" fill="#fff"/><use xlink:href="#Q" transform="matrix(1,0,0,1,88,328) translate(25.625 56.1)"/><path d="M80 148c0-4.42 3.58-8 8-8h224c4.42 0 8 3.58 8 8v105c0 4.42-3.58 8-8 8H88c-4.42 0-8-3.58-8-8z" stroke="#333" fill="#fff"/><use xlink:href="#R" transform="matrix(1,0,0,1,88,148) translate(73.025 56.1)"/><path d="M200 319v-34.5" stroke="#333" fill="none"/><path d="M200.5 319.5h-1v-.5h1z" fill="#333"/><path d="M200 262.48L212.73 284h-25.46z" stroke="#333" fill="#fff"/><path d="M321 380.5h177c6.63 0 12-5.37 12-12v-74c0-6.63 5.37-12 12-12h147.13" stroke="#333" fill="none"/><path d="M321 381h-.5v-1h.5z" fill="#333"/><path d="M698.8 282.5l-14.86 14.85-15.15-14.85 15.14-14.85z" stroke="#333" fill="#fff"/><path d="M160 635v-92.5c0-6.63 5.37-12 12-12h533.78c6.63 0 12-5.37 12-12v-70" stroke="#333" fill="none"/><path d="M160.5 635.5h-1v-.5h1z" fill="#333"/><path d="M717.78 426.48L730.5 448h-25.45z" stroke="#333" fill="#fff"/><path d="M400 635v-63c0-6.63 5.37-12 12-12h335.17c6.62 0 12-5.37 12-12v-99.5" stroke="#333" fill="none"/><path d="M400.5 635.5h-1v-.5h1z" fill="#333"/><path d="M759.17 426.48L771.9 448h-25.46z" stroke="#333" fill="#fff"/><path d="M640 635v-43c0-6.63 5.37-12 12-12h134.76c6.62 0 12-5.37 12-12V448.5" stroke="#333" fill="none"/><path d="M640.5 635.5h-1v-.5h1z" fill="#333"/><path d="M798.76 426.48L811.48 448h-25.45z" stroke="#333" fill="#fff"/><path d="M880 635v-63c0-6.63-5.37-12-12-12h-12.26c-6.62 0-12-5.37-12-12v-99.5" stroke="#333" fill="none"/><path d="M880.5 635.5h-1v-.5h1z" fill="#333"/><path d="M843.74 426.48L856.47 448h-25.45z" stroke="#333" fill="#fff"/><path d="M1120 635v-92.5c0-6.63-5.37-12-12-12H892c-6.63 0-12-5.37-12-12v-70" stroke="#333" fill="none"/><path d="M1120.5 635.5h-1v-.5h1z" fill="#333"/><path d="M880 426.48L892.73 448h-25.46z" stroke="#333" fill="#fff"/><path d="M1360 635V502c0-6.63-5.37-12-12-12H933.12c-6.63 0-12-5.37-12-12v-29.5" stroke="#333" fill="none"/><path d="M1360.5 635.5h-1v-.5h1z" fill="#333"/><path d="M921.12 426.48L933.85 448H908.4z" stroke="#333" fill="#fff"/><path d="M1600 635V472c0-6.63-5.37-12-12-12H972.2c-6.34 0-11.5-5.15-11.5-11.5" stroke="#333" fill="none"/><path d="M1600.5 635.5h-1v-.5h1z" fill="#333"/><path d="M960.7 426.48L973.45 448h-25.46z" stroke="#333" fill="#fff"/><path d="M743.06 1060v-78c0-6.63-5.37-12-12-12H172c-6.63 0-12-5.37-12-12V815.5" fill="none"/><path d="M743.06 1060v-1.95m0-3.9v-3.9m0-3.9v-3.9m0-3.9v-3.9m0-3.9v-3.9m0-3.9v-3.9m0-3.9v-3.9m0-3.9v-3.9m0-3.9v-3.9m0-3.9v-3.9m0-3.9V982l-.3-2.33m-1.78-4.3l-1.43-1.86-1.87-1.42m-4.3-1.77l-2.32-.3h-2m-4 0h-3.98m-4 0h-4m-3.98 0h-4m-4 0h-3.98m-4 0h-4m-3.98 0h-4m-4 0h-3.98m-4 0h-4m-3.98 0h-4m-4 0h-3.98m-4 0h-4m-3.98 0h-4m-4 0h-3.98m-4 0h-4m-3.98 0h-4m-4 0h-3.98m-4 0h-4m-3.98 0h-4m-4 0h-3.98m-4 0h-4m-3.98 0h-4m-4 0h-3.98m-4 0h-4m-3.98 0h-4m-4 0h-3.98m-4 0h-4m-3.98 0h-4m-4 0h-3.98m-4 0h-4m-3.98 0h-4m-4 0h-3.98m-4 0h-4m-3.98 0h-4m-4 0h-3.98m-4 0h-4m-3.98 0h-4m-4 0h-3.98m-4 0h-4m-3.98 0h-4m-4 0h-3.98m-4 0h-4m-3.98 0h-4m-4 0h-3.98m-4 0h-4m-3.98 0h-4m-3.98 0h-4m-4 0h-3.98m-4 0h-4m-3.98 0h-4m-4 0h-3.98m-4 0h-4m-3.98 0h-4m-4 0h-3.98m-4 0h-4m-3.98 0h-4m-4 0h-3.98m-4 0h-4m-3.98 0h-4m-4 0h-3.98m-4 0h-4m-3.98 0h-4m-4 0h-3.98m-4 0h-4m-3.98 0h-4m-4 0h-3.98m-4 0h-4m-3.98 0h-4m-4 0H186m-4 0h-4m-3.98 0h-2l-2.33-.3m-4.3-1.78l-1.86-1.43-1.42-1.88m-1.77-4.3L160 958v-1.98m0-3.96v-3.96m0-3.95v-3.96m0-3.97v-3.96m0-3.96v-3.95m0-3.95v-3.96m0-3.96v-3.96m0-3.96v-3.96m0-3.95v-3.96m0-3.97v-3.96m0-3.96v-3.95m0-3.95v-3.96m0-3.96v-3.96m0-3.96v-3.96m0-3.95v-3.96m0-3.97v-3.96m0-3.96v-3.95m0-3.95v-3.96m0-3.96v-1.98" stroke="#333" fill="none"/><path d="M743.56 1060.5h-1v-.5h1z" fill="#333"/><path d="M160 793.48L172.73 815h-25.46z" stroke="#333" fill="#fff"/><path d="M777.23 1060V938.5c0-6.63-5.37-12-12-12H412c-6.63 0-12-5.37-12-12v-99" fill="none"/><path d="M777.23 1060v-2.03m0-4.05v-4.05m0-4.04v-4.05m0-4.06v-4.05m0-4.05v-4.04m0-4.05v-4.05m0-4.05v-4.05m0-4.05v-4.05m0-4.05v-4.05m0-4.05v-4.05m0-4.05v-4.05m0-4.05v-4.05m0-4.05v-4.05m0-4.05v-4.05m0-4.05v-4.05m0-4.05v-2.03l-.3-2.33m-1.78-4.3l-1.44-1.86-1.85-1.42m-4.3-1.77l-2.32-.3h-2m-4.02 0h-4m-4.02 0h-4m-4.03 0h-4m-4.03 0h-4m-4.02 0h-4.02m-4 0h-4.03m-4 0h-4.02m-4.02 0h-4m-4 0h-4.03m-4 0h-4.03m-4 0h-4.02m-4.02 0h-4m-4.03 0h-4m-4.02 0h-4.02m-4 0h-4.03m-4 0h-4.02m-4.02 0h-4m-4.03 0h-4m-4.02 0h-4m-4.02 0h-4.02m-4 0h-4.02m-4.02 0h-4m-4.03 0h-4.02m-4 0h-4.03m-4 0h-4.03m-4 0h-4.02m-4.02 0h-4m-4.03 0h-4m-4.02 0h-4.02m-4 0h-4.02m-4 0h-4.02m-4.02 0h-4m-4.03 0h-4m-4 0h-4.03m-4 0h-4.03m-4 0h-4.02m-4.02 0h-4m-4.03 0h-4m-4.02 0h-4.02m-4 0h-4.03m-4 0h-4.02m-4.02 0h-4m-4.03 0h-4m-4.02 0h-2l-2.33-.3m-4.3-1.78l-1.86-1.43-1.42-1.88m-1.77-4.3l-.3-2.32v-2.06m0-4.13v-4.1m0-4.14v-4.12m0-4.13v-4.1m0-4.14v-4.12m0-4.13v-4.1m0-4.14v-4.12m0-4.13v-4.1m0-4.14v-4.12m0-4.13v-4.1m0-4.14v-4.12m0-4.13v-4.1m0-4.14v-2.06" stroke="#333" fill="none"/><path d="M777.73 1060.5h-1v-.5h1z" fill="#333"/><path d="M400 793.48L412.73 815h-25.46z" stroke="#333" fill="#fff"/><path d="M824 1060V902c0-6.63-5.4-12-12-12H652c-6.63 0-12-5.37-12-12v-62.5" fill="none"/><path d="M824 1060v-1.97m0-3.95v-3.95m0-3.96v-3.94m0-3.95v-3.95m0-3.95v-3.95m0-3.95v-3.95m0-3.95v-3.95m0-3.95v-3.95m0-3.95v-3.95m0-3.96v-3.94m0-3.95v-3.95m0-3.95v-3.96m0-3.94v-3.95m0-3.95v-3.95m0-3.96v-3.94m0-3.95v-3.96m0-3.94v-3.96m0-3.94v-3.95m0-3.96v-3.94m0-3.96v-3.94m0-3.95V902l-.32-2.33m-1.78-4.3l-1.43-1.86-1.86-1.42m-4.28-1.77L812 890h-2m-4 0h-4m-4 0h-4m-4 0h-4m-4 0h-4m-4 0h-4m-4 0h-4m-4 0h-4m-4 0h-4m-4 0h-4m-4 0h-4m-4 0h-4m-4 0h-4m-4 0h-4m-4 0h-4m-4 0h-4m-4 0h-4m-4 0h-4m-4 0h-4m-4 0h-4m-4 0h-2l-2.33-.3m-4.3-1.78l-1.86-1.43-1.42-1.88m-1.77-4.3L640 878v-1.95m0-3.9v-3.92m0-3.9v-3.9m0-3.9v-3.92m0-3.9v-3.9m0-3.9v-3.92m0-3.9v-3.9m0-3.9v-3.92m0-3.9v-1.96" stroke="#333" fill="none"/><path d="M824.5 1060.5h-1v-.5h1z" fill="#333"/><path d="M640 793.48L652.73 815h-25.46z" stroke="#333" fill="#fff"/><path d="M880 1060V815.5" fill="none"/><path d="M880 1060v-1.97m0-3.95v-3.94m0-3.94v-3.95m0-3.94v-3.93m0-3.95v-3.94m0-3.94v-3.95m0-3.95v-3.94m0-3.94v-3.94m0-3.94v-3.95m0-3.94v-3.96m0-3.94v-3.94m0-3.95v-3.93m0-3.94v-3.95m0-3.94v-3.94m0-3.95v-3.94m0-3.93v-3.95m0-3.94v-3.94m0-3.95v-3.95m0-3.95v-3.94m0-3.94v-3.95m0-3.94v-3.94m0-3.96v-3.94m0-3.94v-3.95m0-3.93v-3.94m0-3.95v-3.94m0-3.95v-3.95m0-3.94v-3.94m0-3.94v-3.94m0-3.95v-3.94m0-3.95v-3.95m0-3.94v-3.94m0-3.95v-1.97" stroke="#333" fill="none"/><path d="M880.5 1060.5h-1v-.5h1z" fill="#333"/><path d="M880 793.48L892.73 815h-25.46z" stroke="#333" fill="#fff"/><path d="M935.48 1060V938.5c0-6.63 5.37-12 12-12H1108c6.63 0 12-5.37 12-12v-99" fill="none"/><path d="M935.48 1060v-2.03m0-4.05v-4.05m0-4.04v-4.05m0-4.06v-4.05m0-4.05v-4.04m0-4.05v-4.05m0-4.05v-4.05m0-4.05v-4.05m0-4.05v-4.05m0-4.05v-4.05m0-4.05v-4.05m0-4.05v-4.05m0-4.05v-4.05m0-4.05v-4.05m0-4.05v-4.05m0-4.05v-2.03l.3-2.33m1.78-4.3l1.43-1.86 1.86-1.42m4.3-1.77l2.32-.3h2m4.02 0h4m4.03 0h4m4.02 0h4m4.03 0h4m4.02 0h4.02m4 0h4.02m4.02 0h4m4.02 0h4m4.03 0h4.02m4 0h4.03m4 0h4.02m4.02 0h4m4 0h4.02m4.02 0h4m4.02 0h4.02m4 0h4.02m4.02 0h4m4.02 0h4m4.03 0h4m4.02 0h2l2.33-.3m4.3-1.78l1.86-1.43 1.42-1.88m1.77-4.3l.3-2.32v-2.06m0-4.13v-4.1m0-4.14v-4.12m0-4.13v-4.1m0-4.14v-4.12m0-4.13v-4.1m0-4.14v-4.12m0-4.13v-4.1m0-4.14v-4.12m0-4.13v-4.1m0-4.14v-4.12m0-4.13v-4.1m0-4.14v-2.06" stroke="#333" fill="none"/><path d="M935.98 1060.5h-1v-.5h1z" fill="#333"/><path d="M1120 793.48l12.73 21.52h-25.46z" stroke="#333" fill="#fff"/><path d="M985.83 1060v-98c0-6.63 5.37-12 12-12H1348c6.63 0 12-5.37 12-12V815.5" fill="none"/><path d="M985.83 1060v-2.04m0-4.1v-4.07m0-4.1v-4.08m0-4.08v-4.08m0-4.1v-4.07m0-4.1v-4.08m0-4.08v-4.08m0-4.1v-4.07m0-4.1v-4.08m0-4.08v-4.08m0-4.1v-4.07m0-4.1v-4.08m0-4.08V962l.3-2.33m1.8-4.3l1.42-1.86 1.86-1.42m4.3-1.77l2.33-.3h2m3.97 0h3.98m3.98 0h3.98m3.98 0h3.98m3.98 0h3.98m3.97 0h3.98m4 0h3.97m3.98 0h3.98m3.98 0h4m3.97 0h3.98m3.98 0h3.98m3.98 0h3.98m3.98 0h3.98m3.98 0h3.98m3.98 0h3.98m3.98 0h3.98m3.98 0h3.98m3.97 0h3.98m4 0h3.97m3.98 0h3.98m3.98 0h4m3.97 0h3.98m3.98 0h3.98m3.98 0h3.98m3.98 0h3.98m3.98 0h3.98m3.98 0h3.98m3.98 0h3.98m3.98 0h3.98m3.97 0h3.98m4 0h3.97m3.98 0h3.98m3.98 0h4m3.97 0h3.98m3.98 0h3.98m4 0h3.96m3.98 0h3.98m3.98 0h3.98m3.98 0h3.98m3.98 0h3.98m3.98 0h3.98m3.98 0h3.97m4 0h3.97m3.98 0h3.98m3.98 0h2l2.33-.3m4.3-1.78l1.86-1.43 1.42-1.88m1.77-4.3l.3-2.32v-2.04m0-4.08v-4.1m0-4.07v-4.07m0-4.1v-4.07m0-4.08v-4.1m0-4.07v-4.07m0-4.1v-4.07m0-4.08v-4.1m0-4.07v-4.07m0-4.1v-4.07m0-4.08v-4.1m0-4.07v-4.07m0-4.1v-4.07m0-4.08v-4.1m0-4.07v-4.07m0-4.1v-2.03" stroke="#333" fill="none"/><path d="M986.33 1060.5h-1v-.5h1z" fill="#333"/><path d="M1360 793.48l12.73 21.52h-25.46z" stroke="#333" fill="#fff"/><path d="M1037.98 1060v-68c0-6.63 5.38-12 12-12H1588c6.63 0 12-5.37 12-12V815.5" fill="none"/><path d="M1037.98 1060v-1.9m0-3.77v-3.77m0-3.78V1043m0-3.78v-3.78m0-3.77v-3.78m0-3.8v-3.77m0-3.77v-3.78m0-3.78v-3.78m0-3.78v-3.77m0-3.78V992l.3-2.33m1.8-4.3l1.42-1.86 1.86-1.42m4.3-1.77l2.32-.3h2m4.03 0h4.02m4.02 0h4m4.03 0h4m4.03 0h4m4.03 0h4m4.03 0h4m4.03 0h4m4.02 0h4m4.03 0h4m4.03 0h4m4.03 0h4.02m4.02 0h4m4.03 0h4m4.03 0h4m4.03 0h4m4.03 0h4m4.03 0h4m4.02 0h4m4.03 0h4m4.03 0h4m4.03 0h4.02m4.02 0h4m4.03 0h4m4.03 0h4m4.03 0h4m4.03 0h4m4.03 0h4m4.02 0h4m4.03 0h4m4.03 0h4m4.03 0h4.02m4.02 0h4m4.03 0h4m4.03 0h4m4.03 0h4m4.03 0h4m4.03 0h4m4.02 0h4m4.03 0h4m4.03 0h4m4.03 0h4.02m4.02 0h4m4.03 0h4m4.03 0h4.02m4 0h4.03m4 0h4.03m4 0h4.03m4.02 0h4.02m4 0h4.03m4 0h4.03m4 0h4.03m4 0h4.03m4 0h4.03m4 0h4.02m4 0h4.03m4 0h4.03m4 0h4.03m4.02 0h4.02m4 0h4.03m4 0h4.03m4 0h4.03m4 0h4.03m4 0h4.03m4 0h4.02m4 0h4.03m4 0h4.03m4 0h2.02l2.33-.3m4.3-1.78l1.86-1.43 1.42-1.88m1.77-4.3l.3-2.32v-2m0-4.02v-4m0-4.03v-4m0-4.02v-4.02m0-4v-4m0-4.02v-4.02m0-4v-4.02m0-4.02v-4m0-4.02v-4.02m0-4v-4.02m0-4.02v-4m0-4.02v-4.02m0-4v-4.02m0-4v-4.03m0-4v-4.02m0-4.02v-4m0-4v-4.03m0-4v-4.02m0-4.02v-4m0-4.02v-2" stroke="#333" fill="none"/><path d="M1038.48 1060.5h-1v-.5h1z" fill="#333"/><path d="M1600 793.48l12.73 21.52h-25.46zM2032 86h140c4.42 0 8 3.58 8 8v178c0 4.42-3.58 8-8 8h-384c-4.42 0-8-3.58-8-8V68c0-4.42 3.58-8 8-8h224c4.42 0 9.5 3.25 11.35 7.26zm-252 0h252" stroke="#333" fill="#fff"/><g><use xlink:href="#S" transform="matrix(1,0,0,1,1788,60) translate(73.6 16.6)"/></g><path d="M1800 108c0-4.42 3.58-8 8-8h344c4.42 0 8 3.58 8 8v140c0 4.42-3.58 8-8 8h-344c-4.42 0-8-3.58-8-8z" stroke="#333" fill="#fff"/><path d="M1800 137.6h360m-360 59.1h360" stroke="#333" fill="none"/><g><use xlink:href="#T" transform="matrix(1,0,0,1,1808,108) translate(152.55 14.6)"/></g><g><use xlink:href="#U" transform="matrix(1,0,0,1,1812,204.7) translate(124.57499999999999 25.6)"/><use xlink:href="#p" transform="matrix(1,0,0,1,1812,204.7) translate(168.475 25.6)"/><use xlink:href="#V" transform="matrix(1,0,0,1,1812,204.7) translate(178.475 25.6)"/></g><path d="M1200 148c0-4.42 3.58-8 8-8h344c4.42 0 8 3.58 8 8v140c0 4.42-3.58 8-8 8h-344c-4.42 0-8-3.58-8-8z" stroke="#333" fill="#fff"/><path d="M1200 177.6h360m-360 59.1h360" stroke="#333" fill="none"/><g><use xlink:href="#W" transform="matrix(1,0,0,1,1208,148) translate(108.44999999999999 14.6)"/></g><g><use xlink:href="#n" transform="matrix(1,0,0,1,1212,185.6) translate(85.65 25.6)"/><use xlink:href="#X" transform="matrix(1,0,0,1,1212,185.6) translate(96.60000000000001 25.6)"/></g><path d="M1199 218h-57c-6.63 0-12 5.37-12 12v40.5c0 6.63-5.37 12-12 12h-27.13" stroke="#333" fill="none"/><path d="M1199.5 218.5h-.5v-1h.5z" fill="#333"/><path d="M1061.2 282.5l14.86-14.85 15.15 14.85-15.14 14.85z" stroke="#333" fill="#fff"/><defs><path fill="#333" d="M30 0v-248h187v28H63v79h144v27H63v87h162V0H30" id="Y"/><path fill="#333" d="M210-169c-67 3-38 105-44 169h-31v-121c0-29-5-50-35-48C34-165 62-65 56 0H25l-1-190h30c1 10-1 24 2 32 10-44 99-50 107 0 11-21 27-35 58-36 85-2 47 119 55 194h-31v-121c0-29-5-49-35-48" id="Z"/><path fill="#333" d="M115-194c55 1 70 41 70 98S169 2 115 4C84 4 66-9 55-30l1 105H24l-1-265h31l2 30c10-21 28-34 59-34zm-8 174c40 0 45-34 45-75s-6-73-45-74c-42 0-51 32-51 76 0 43 10 73 51 73" id="aa"/><path fill="#333" d="M114-163C36-179 61-72 57 0H25l-1-190h30c1 12-1 29 2 39 6-27 23-49 58-41v29" id="ab"/><path fill="#333" d="M100-194c63 0 86 42 84 106H49c0 40 14 67 53 68 26 1 43-12 49-29l28 8c-11 28-37 45-77 45C44 4 14-33 15-96c1-61 26-98 85-98zm52 81c6-60-76-77-97-28-3 7-6 17-6 28h103" id="ac"/><path fill="#333" d="M135-143c-3-34-86-38-87 0 15 53 115 12 119 90S17 21 10-45l28-5c4 36 97 45 98 0-10-56-113-15-118-90-4-57 82-63 122-42 12 7 21 19 24 35" id="ad"/><path fill="#333" d="M141-36C126-15 110 5 73 4 37 3 15-17 15-53c-1-64 63-63 125-63 3-35-9-54-41-54-24 1-41 7-42 31l-33-3c5-37 33-52 76-52 45 0 72 20 72 64v82c-1 20 7 32 28 27v20c-31 9-61-2-59-35zM48-53c0 20 12 33 32 33 41-3 63-29 60-74-43 2-92-5-92 41" id="ae"/><path fill="#333" d="M137 0h-34L2-248h35l83 218 83-218h36" id="af"/><path fill="#333" d="M24-231v-30h32v30H24zM24 0v-190h32V0H24" id="ag"/><path fill="#333" d="M85-194c31 0 48 13 60 33l-1-100h32l1 261h-30c-2-10 0-23-3-31C134-8 116 4 85 4 32 4 16-35 15-94c0-66 23-100 70-100zm9 24c-40 0-46 34-46 75 0 40 6 74 45 74 42 0 51-32 51-76 0-42-9-74-50-73" id="ah"/><path fill="#333" d="M100-194c62-1 85 37 85 99 1 63-27 99-86 99S16-35 15-95c0-66 28-99 85-99zM99-20c44 1 53-31 53-75 0-43-8-75-51-75s-53 32-53 75 10 74 51 75" id="ai"/><path fill="#333" d="M153-248C145-148 188 4 80 4 36 3 13-21 6-62l32-5c4 25 16 42 43 43 27 0 39-20 39-49v-147H72v-28h81" id="aj"/><path fill="#333" d="M84 4C-5 8 30-112 23-190h32v120c0 31 7 50 39 49 72-2 45-101 50-169h31l1 190h-30c-1-10 1-25-2-33-11 22-28 36-60 37" id="ak"/><path fill="#333" d="M177-190C167-65 218 103 67 71c-23-6-38-20-44-43l32-5c15 47 100 32 89-28v-30C133-14 115 1 83 1 29 1 15-40 15-95c0-56 16-97 71-98 29-1 48 16 59 35 1-10 0-23 2-32h30zM94-22c36 0 50-32 50-73 0-42-14-75-50-75-39 0-46 34-46 75s6 73 46 73" id="al"/><g id="a"><use transform="matrix(0.05,0,0,0.05,0,0)" xlink:href="#Y"/><use transform="matrix(0.05,0,0,0.05,12,0)" xlink:href="#Z"/><use transform="matrix(0.05,0,0,0.05,26.950000000000003,0)" xlink:href="#aa"/><use transform="matrix(0.05,0,0,0.05,36.95,0)" xlink:href="#ab"/><use transform="matrix(0.05,0,0,0.05,42.900000000000006,0)" xlink:href="#ac"/><use transform="matrix(0.05,0,0,0.05,52.900000000000006,0)" xlink:href="#ad"/><use transform="matrix(0.05,0,0,0.05,61.900000000000006,0)" xlink:href="#ae"/><use transform="matrix(0.05,0,0,0.05,71.9,0)" xlink:href="#af"/><use transform="matrix(0.05,0,0,0.05,83.55000000000001,0)" xlink:href="#ag"/><use transform="matrix(0.05,0,0,0.05,87.50000000000001,0)" xlink:href="#ah"/><use transform="matrix(0.05,0,0,0.05,97.50000000000001,0)" xlink:href="#ac"/><use transform="matrix(0.05,0,0,0.05,107.5,0)" xlink:href="#ai"/><use transform="matrix(0.05,0,0,0.05,117.5,0)" xlink:href="#aj"/><use transform="matrix(0.05,0,0,0.05,126.5,0)" xlink:href="#ak"/><use transform="matrix(0.05,0,0,0.05,136.5,0)" xlink:href="#ac"/><use transform="matrix(0.05,0,0,0.05,146.5,0)" xlink:href="#al"/><use transform="matrix(0.05,0,0,0.05,156.5,0)" xlink:href="#ai"/><use transform="matrix(0.05,0,0,0.05,166.5,0)" xlink:href="#ad"/></g><path fill="#333" d="M205 0l-28-72H64L36 0H1l101-248h38L239 0h-34zm-38-99l-47-123c-12 45-31 82-46 123h93" id="am"/><path fill="#333" d="M59-47c-2 24 18 29 38 22v24C64 9 27 4 27-40v-127H5v-23h24l9-43h21v43h35v23H59v120" id="an"/><path fill="#333" d="M115-194c53 0 69 39 70 98 0 66-23 100-70 100C84 3 66-7 56-30L54 0H23l1-261h32v101c10-23 28-34 59-34zm-8 174c40 0 45-34 45-75 0-40-5-75-45-74-42 0-51 32-51 76 0 43 10 73 51 73" id="ao"/><g id="b"><use transform="matrix(0.05,0,0,0.05,0,0)" xlink:href="#am"/><use transform="matrix(0.05,0,0,0.05,12,0)" xlink:href="#an"/><use transform="matrix(0.05,0,0,0.05,17,0)" xlink:href="#ab"/><use transform="matrix(0.05,0,0,0.05,22.95,0)" xlink:href="#ag"/><use transform="matrix(0.05,0,0,0.05,26.899999999999995,0)" xlink:href="#ao"/><use transform="matrix(0.05,0,0,0.05,36.9,0)" xlink:href="#ak"/><use transform="matrix(0.05,0,0,0.05,46.9,0)" xlink:href="#an"/><use transform="matrix(0.05,0,0,0.05,51.900000000000006,0)" xlink:href="#ai"/><use transform="matrix(0.05,0,0,0.05,61.900000000000006,0)" xlink:href="#ad"/></g><path fill="#b2b2b2" d="M128 0H69L1-190h53L99-40l48-150h52" id="ap"/><path fill="#b2b2b2" d="M25-224v-37h50v37H25zM25 0v-190h50V0H25" id="aq"/><path fill="#b2b2b2" d="M88-194c31-1 46 15 58 34l-1-101h50l1 261h-48c-2-10 0-23-3-31C134-8 116 4 84 4 32 4 16-41 15-95c0-56 19-97 73-99zm17 164c33 0 40-30 41-66 1-37-9-64-41-64s-38 30-39 65c0 43 13 65 39 65" id="ar"/><path fill="#b2b2b2" d="M185-48c-13 30-37 53-82 52C43 2 14-33 14-96s30-98 90-98c62 0 83 45 84 108H66c0 31 8 55 39 56 18 0 30-7 34-22zm-45-69c5-46-57-63-70-21-2 6-4 13-4 21h74" id="as"/><path fill="#b2b2b2" d="M110-194c64 0 96 36 96 99 0 64-35 99-97 99-61 0-95-36-95-99 0-62 34-99 96-99zm-1 164c35 0 45-28 45-65 0-40-10-65-43-65-34 0-45 26-45 65 0 36 10 65 43 65" id="at"/><g id="c"><use transform="matrix(0.07929077365129616,0,0,0.07929077365129616,0,0)" xlink:href="#ap"/><use transform="matrix(0.07929077365129616,0,0,0.07929077365129616,15.858154730259233,0)" xlink:href="#aq"/><use transform="matrix(0.07929077365129616,0,0,0.07929077365129616,23.787232095388855,0)" xlink:href="#ar"/><use transform="matrix(0.07929077365129616,0,0,0.07929077365129616,41.15191152502271,0)" xlink:href="#as"/><use transform="matrix(0.07929077365129616,0,0,0.07929077365129616,57.01006625528194,0)" xlink:href="#at"/></g><path fill="#b2b2b2" d="M25-224v-37h50v37H25zM75 22c2 45-34 59-81 51V38c22 5 31-5 31-27v-201h50V22" id="au"/><path fill="#b2b2b2" d="M85 4C-2 5 27-109 22-190h50c7 57-23 150 33 157 60-5 35-97 40-157h50l1 190h-47c-2-12 1-28-3-38-12 25-28 42-61 42" id="av"/><path fill="#b2b2b2" d="M195-6C206 82 75 100 31 46c-4-6-6-13-8-21l49-6c3 16 16 24 34 25 40 0 42-37 40-79-11 22-30 35-61 35-53 0-70-43-70-97 0-56 18-96 73-97 30 0 46 14 59 34l2-30h47zm-90-29c32 0 41-27 41-63 0-35-9-62-40-62-32 0-39 29-40 63 0 36 9 62 39 62" id="aw"/><g id="d"><use transform="matrix(0.07929077365129616,0,0,0.07929077365129616,0,0)" xlink:href="#au"/><use transform="matrix(0.07929077365129616,0,0,0.07929077365129616,7.929077365129617,0)" xlink:href="#av"/><use transform="matrix(0.07929077365129616,0,0,0.07929077365129616,25.29375679476348,0)" xlink:href="#as"/><use transform="matrix(0.07929077365129616,0,0,0.07929077365129616,41.15191152502271,0)" xlink:href="#aw"/><use transform="matrix(0.07929077365129616,0,0,0.07929077365129616,58.51659095465657,0)" xlink:href="#at"/></g><path fill="#b2b2b2" d="M153-248C145-148 188 4 80 4 36 3 13-21 6-62l32-5c4 25 16 42 43 43 27 0 39-20 39-49v-147H72v-28h81" id="ax"/><path fill="#b2b2b2" d="M84 4C-5 8 30-112 23-190h32v120c0 31 7 50 39 49 72-2 45-101 50-169h31l1 190h-30c-1-10 1-25-2-33-11 22-28 36-60 37" id="ay"/><path fill="#b2b2b2" d="M141-36C126-15 110 5 73 4 37 3 15-17 15-53c-1-64 63-63 125-63 3-35-9-54-41-54-24 1-41 7-42 31l-33-3c5-37 33-52 76-52 45 0 72 20 72 64v82c-1 20 7 32 28 27v20c-31 9-61-2-59-35zM48-53c0 20 12 33 32 33 41-3 63-29 60-74-43 2-92-5-92 41" id="az"/><path fill="#b2b2b2" d="M117-194c89-4 53 116 60 194h-32v-121c0-31-8-49-39-48C34-167 62-67 57 0H25l-1-190h30c1 10-1 24 2 32 11-22 29-35 61-36" id="aA"/><g id="e"><use transform="matrix(0.046252951296589434,0,0,0.046252951296589434,0,0)" xlink:href="#ax"/><use transform="matrix(0.046252951296589434,0,0,0.046252951296589434,8.325531233386098,0)" xlink:href="#ay"/><use transform="matrix(0.046252951296589434,0,0,0.046252951296589434,17.576121492703983,0)" xlink:href="#az"/><use transform="matrix(0.046252951296589434,0,0,0.046252951296589434,26.826711752021872,0)" xlink:href="#aA"/></g><path fill="#b2b2b2" d="M30 0v-248h187v28H63v79h144v27H63v87h162V0H30" id="aB"/><path fill="#b2b2b2" d="M135-143c-3-34-86-38-87 0 15 53 115 12 119 90S17 21 10-45l28-5c4 36 97 45 98 0-10-56-113-15-118-90-4-57 82-63 122-42 12 7 21 19 24 35" id="aC"/><path fill="#b2b2b2" d="M59-47c-2 24 18 29 38 22v24C64 9 27 4 27-40v-127H5v-23h24l9-43h21v43h35v23H59v120" id="aD"/><path fill="#b2b2b2" d="M100-194c63 0 86 42 84 106H49c0 40 14 67 53 68 26 1 43-12 49-29l28 8c-11 28-37 45-77 45C44 4 14-33 15-96c1-61 26-98 85-98zm52 81c6-60-76-77-97-28-3 7-6 17-6 28h103" id="aE"/><path fill="#b2b2b2" d="M115-194c53 0 69 39 70 98 0 66-23 100-70 100C84 3 66-7 56-30L54 0H23l1-261h32v101c10-23 28-34 59-34zm-8 174c40 0 45-34 45-75 0-40-5-75-45-74-42 0-51 32-51 76 0 43 10 73 51 73" id="aF"/><g id="f"><use transform="matrix(0.046252951296589434,0,0,0.046252951296589434,0,0)" xlink:href="#aB"/><use transform="matrix(0.046252951296589434,0,0,0.046252951296589434,11.100708311181464,0)" xlink:href="#aC"/><use transform="matrix(0.046252951296589434,0,0,0.046252951296589434,19.42623954456756,0)" xlink:href="#aD"/><use transform="matrix(0.046252951296589434,0,0,0.046252951296589434,24.051534674226506,0)" xlink:href="#aE"/><use transform="matrix(0.046252951296589434,0,0,0.046252951296589434,33.30212493354439,0)" xlink:href="#aF"/><use transform="matrix(0.046252951296589434,0,0,0.046252951296589434,42.55271519286228,0)" xlink:href="#az"/><use transform="matrix(0.046252951296589434,0,0,0.046252951296589434,51.80330545218017,0)" xlink:href="#aA"/></g><path fill="#b2b2b2" d="M197 0v-115H63V0H30v-248h33v105h134v-105h34V0h-34" id="aG"/><path fill="#b2b2b2" d="M100-194c62-1 85 37 85 99 1 63-27 99-86 99S16-35 15-95c0-66 28-99 85-99zM99-20c44 1 53-31 53-75 0-43-8-75-51-75s-53 32-53 75 10 74 51 75" id="aH"/><g id="g"><use transform="matrix(0.046252951296589434,0,0,0.046252951296589434,0,0)" xlink:href="#aG"/><use transform="matrix(0.046252951296589434,0,0,0.046252951296589434,11.979514385816664,0)" xlink:href="#aE"/><use transform="matrix(0.046252951296589434,0,0,0.046252951296589434,21.230104645134553,0)" xlink:href="#aA"/><use transform="matrix(0.046252951296589434,0,0,0.046252951296589434,30.48069490445244,0)" xlink:href="#az"/><use transform="matrix(0.046252951296589434,0,0,0.046252951296589434,39.73128516377033,0)" xlink:href="#aH"/></g><path fill="#b2b2b2" d="M232-93c-1 65-40 97-104 97C67 4 28-28 28-90v-158h33c8 89-33 224 67 224 102 0 64-133 71-224h33v155" id="aI"/><path fill="#b2b2b2" d="M114-163C36-179 61-72 57 0H25l-1-190h30c1 12-1 29 2 39 6-27 23-49 58-41v29" id="aJ"/><path fill="#b2b2b2" d="M24-231v-30h32v30H24zM24 0v-190h32V0H24" id="aK"/><g id="h"><use transform="matrix(0.046252951296589434,0,0,0.046252951296589434,0,0)" xlink:href="#aI"/><use transform="matrix(0.046252951296589434,0,0,0.046252951296589434,11.979514385816664,0)" xlink:href="#aJ"/><use transform="matrix(0.046252951296589434,0,0,0.046252951296589434,17.48361559011081,0)" xlink:href="#aK"/><use transform="matrix(0.046252951296589434,0,0,0.046252951296589434,21.137598742541375,0)" xlink:href="#aF"/><use transform="matrix(0.046252951296589434,0,0,0.046252951296589434,30.388189001859256,0)" xlink:href="#aE"/></g><path fill="#b2b2b2" d="M32 76v-337h29V76H32" id="aL"/><use transform="matrix(0.046252951296589434,0,0,0.046252951296589434,0,0)" xlink:href="#aL" id="i"/><path fill="#b2b2b2" d="M30-248c118-7 216 8 213 122C240-48 200 0 122 0H30v-248zM63-27c89 8 146-16 146-99s-60-101-146-95v194" id="aM"/><path fill="#b2b2b2" d="M96-169c-40 0-48 33-48 73s9 75 48 75c24 0 41-14 43-38l32 2c-6 37-31 61-74 61-59 0-76-41-82-99-10-93 101-131 147-64 4 7 5 14 7 22l-32 3c-4-21-16-35-41-35" id="aN"/><path fill="#b2b2b2" d="M210-169c-67 3-38 105-44 169h-31v-121c0-29-5-50-35-48C34-165 62-65 56 0H25l-1-190h30c1 10-1 24 2 32 10-44 99-50 107 0 11-21 27-35 58-36 85-2 47 119 55 194h-31v-121c0-29-5-49-35-48" id="aO"/><g id="j"><use transform="matrix(0.046252951296589434,0,0,0.046252951296589434,0,0)" xlink:href="#aM"/><use transform="matrix(0.046252951296589434,0,0,0.046252951296589434,11.979514385816664,0)" xlink:href="#aE"/><use transform="matrix(0.046252951296589434,0,0,0.046252951296589434,21.230104645134553,0)" xlink:href="#aN"/><use transform="matrix(0.046252951296589434,0,0,0.046252951296589434,29.555635878520647,0)" xlink:href="#aE"/><use transform="matrix(0.046252951296589434,0,0,0.046252951296589434,38.806226137838536,0)" xlink:href="#aO"/><use transform="matrix(0.046252951296589434,0,0,0.046252951296589434,52.635858575518775,0)" xlink:href="#aF"/><use transform="matrix(0.046252951296589434,0,0,0.046252951296589434,61.88644883483666,0)" xlink:href="#aE"/><use transform="matrix(0.046252951296589434,0,0,0.046252951296589434,71.13703909415455,0)" xlink:href="#aJ"/></g><path fill="#b2b2b2" d="M126-127c33 6 58 20 58 59 0 88-139 92-164 29-3-8-5-16-6-25l32-3c6 27 21 44 54 44 32 0 52-15 52-46 0-38-36-46-79-43v-28c39 1 72-4 72-42 0-27-17-43-46-43-28 0-47 15-49 41l-32-3c6-42 35-63 81-64 48-1 79 21 79 65 0 36-21 52-52 59" id="aP"/><path fill="#b2b2b2" d="M101-251c68 0 85 55 85 127S166 4 100 4C33 4 14-52 14-124c0-73 17-127 87-127zm-1 229c47 0 54-49 54-102s-4-102-53-102c-51 0-55 48-55 102 0 53 5 102 54 102" id="aQ"/><path fill="#b2b2b2" d="M68-38c1 34 0 65-14 84H32c9-13 17-26 17-46H33v-38h35" id="aR"/><g id="k"><use transform="matrix(0.046252951296589434,0,0,0.046252951296589434,0,0)" xlink:href="#aP"/><use transform="matrix(0.046252951296589434,0,0,0.046252951296589434,9.250590259317887,0)" xlink:href="#aQ"/><use transform="matrix(0.046252951296589434,0,0,0.046252951296589434,18.501180518635774,0)" xlink:href="#aR"/></g><path fill="#b2b2b2" d="M101-251c82-7 93 87 43 132L82-64C71-53 59-42 53-27h129V0H18c2-99 128-94 128-182 0-28-16-43-45-43s-46 15-49 41l-32-3c6-41 34-60 81-64" id="aS"/><path fill="#b2b2b2" d="M27 0v-27h64v-190l-56 39v-29l58-41h29v221h61V0H27" id="aT"/><path fill="#b2b2b2" d="M99-251c64 0 84 50 84 122C183-37 130 33 47-8c-14-7-20-23-25-40l30-5c6 39 69 39 84 7 9-19 16-44 16-74-10 22-31 35-62 35-49 0-73-33-73-83 0-54 28-83 82-83zm-1 141c31-1 51-18 51-49 0-36-14-67-51-67-34 0-49 23-49 58 0 34 15 58 49 58" id="aU"/><g id="l"><use transform="matrix(0.046252951296589434,0,0,0.046252951296589434,0,0)" xlink:href="#aS"/><use transform="matrix(0.046252951296589434,0,0,0.046252951296589434,9.250590259317887,0)" xlink:href="#aQ"/><use transform="matrix(0.046252951296589434,0,0,0.046252951296589434,18.501180518635774,0)" xlink:href="#aT"/><use transform="matrix(0.046252951296589434,0,0,0.046252951296589434,27.75177077795366,0)" xlink:href="#aU"/></g><path fill="#333" d="M106-169C34-169 62-67 57 0H25v-261h32l-1 103c12-21 28-36 61-36 89 0 53 116 60 194h-32v-121c2-32-8-49-39-48" id="aV"/><path fill="#333" d="M96-169c-40 0-48 33-48 73s9 75 48 75c24 0 41-14 43-38l32 2c-6 37-31 61-74 61-59 0-76-41-82-99-10-93 101-131 147-64 4 7 5 14 7 22l-32 3c-4-21-16-35-41-35" id="aW"/><path fill="#333" d="M24 0v-261h32V0H24" id="aX"/><g id="m"><use transform="matrix(0.05,0,0,0.05,0,0)" xlink:href="#af"/><use transform="matrix(0.05,0,0,0.05,11,0)" xlink:href="#ac"/><use transform="matrix(0.05,0,0,0.05,21,0)" xlink:href="#aV"/><use transform="matrix(0.05,0,0,0.05,31,0)" xlink:href="#ag"/><use transform="matrix(0.05,0,0,0.05,34.95,0)" xlink:href="#aW"/><use transform="matrix(0.05,0,0,0.05,43.95,0)" xlink:href="#ak"/><use transform="matrix(0.05,0,0,0.05,53.95,0)" xlink:href="#aX"/><use transform="matrix(0.05,0,0,0.05,57.900000000000006,0)" xlink:href="#ai"/></g><path fill="#333" d="M16-82v-28h88v28H16" id="aY"/><use transform="matrix(0.05,0,0,0.05,0,0)" xlink:href="#aY" id="n"/><path fill="#333" d="M117-194c89-4 53 116 60 194h-32v-121c0-31-8-49-39-48C34-167 62-67 57 0H25l-1-190h30c1 10-1 24 2 32 11-22 29-35 61-36" id="aZ"/><path fill="#333" d="M240 0l2-218c-23 76-54 145-80 218h-23L58-218 59 0H30v-248h44l77 211c21-75 51-140 76-211h43V0h-30" id="ba"/><g id="o"><use transform="matrix(0.05,0,0,0.05,0,0)" xlink:href="#aZ"/><use transform="matrix(0.05,0,0,0.05,10,0)" xlink:href="#ak"/><use transform="matrix(0.05,0,0,0.05,20,0)" xlink:href="#Z"/><use transform="matrix(0.05,0,0,0.05,34.95,0)" xlink:href="#ac"/><use transform="matrix(0.05,0,0,0.05,44.95,0)" xlink:href="#ab"/><use transform="matrix(0.05,0,0,0.05,50.900000000000006,0)" xlink:href="#ai"/><use transform="matrix(0.05,0,0,0.05,60.900000000000006,0)" xlink:href="#ba"/><use transform="matrix(0.05,0,0,0.05,75.85000000000001,0)" xlink:href="#ak"/><use transform="matrix(0.05,0,0,0.05,85.85000000000001,0)" xlink:href="#aZ"/><use transform="matrix(0.05,0,0,0.05,95.85000000000001,0)" xlink:href="#ag"/><use transform="matrix(0.05,0,0,0.05,99.80000000000001,0)" xlink:href="#aW"/><use transform="matrix(0.05,0,0,0.05,108.80000000000001,0)" xlink:href="#ag"/><use transform="matrix(0.05,0,0,0.05,112.75,0)" xlink:href="#ai"/><use transform="matrix(0.05,0,0,0.05,122.75,0)" xlink:href="#aZ"/></g><path fill="#333" d="M33-154v-36h34v36H33zM33 0v-36h34V0H33" id="bb"/><use transform="matrix(0.05,0,0,0.05,0,0)" xlink:href="#bb" id="p"/><g id="q"><use transform="matrix(0.05,0,0,0.05,0,0)" xlink:href="#ag"/><use transform="matrix(0.05,0,0,0.05,3.95,0)" xlink:href="#aZ"/><use transform="matrix(0.05,0,0,0.05,13.949999999999998,0)" xlink:href="#an"/></g><g id="r"><use transform="matrix(0.05,0,0,0.05,0,0)" xlink:href="#aW"/><use transform="matrix(0.05,0,0,0.05,9,0)" xlink:href="#ae"/><use transform="matrix(0.05,0,0,0.05,19,0)" xlink:href="#aZ"/><use transform="matrix(0.05,0,0,0.05,29,0)" xlink:href="#an"/><use transform="matrix(0.05,0,0,0.05,34,0)" xlink:href="#ag"/><use transform="matrix(0.05,0,0,0.05,37.95,0)" xlink:href="#ah"/><use transform="matrix(0.05,0,0,0.05,47.95,0)" xlink:href="#ae"/><use transform="matrix(0.05,0,0,0.05,57.95,0)" xlink:href="#ah"/><use transform="matrix(0.05,0,0,0.05,67.95,0)" xlink:href="#am"/><use transform="matrix(0.05,0,0,0.05,79.95,0)" xlink:href="#ab"/><use transform="matrix(0.05,0,0,0.05,85.9,0)" xlink:href="#Z"/><use transform="matrix(0.05,0,0,0.05,100.85000000000001,0)" xlink:href="#ae"/><use transform="matrix(0.05,0,0,0.05,110.85000000000001,0)" xlink:href="#Z"/><use transform="matrix(0.05,0,0,0.05,125.80000000000001,0)" xlink:href="#ac"/><use transform="matrix(0.05,0,0,0.05,135.8,0)" xlink:href="#aZ"/><use transform="matrix(0.05,0,0,0.05,145.8,0)" xlink:href="#an"/><use transform="matrix(0.05,0,0,0.05,150.8,0)" xlink:href="#ai"/></g><path fill="#333" d="M30-248c87 1 191-15 191 75 0 78-77 80-158 76V0H30v-248zm33 125c57 0 124 11 124-50 0-59-68-47-124-48v98" id="bc"/><g id="s"><use transform="matrix(0.05,0,0,0.05,0,0)" xlink:href="#aW"/><use transform="matrix(0.05,0,0,0.05,9,0)" xlink:href="#ae"/><use transform="matrix(0.05,0,0,0.05,19,0)" xlink:href="#aa"/><use transform="matrix(0.05,0,0,0.05,29,0)" xlink:href="#ae"/><use transform="matrix(0.05,0,0,0.05,39,0)" xlink:href="#aW"/><use transform="matrix(0.05,0,0,0.05,48,0)" xlink:href="#ag"/><use transform="matrix(0.05,0,0,0.05,51.95,0)" xlink:href="#ah"/><use transform="matrix(0.05,0,0,0.05,61.95,0)" xlink:href="#ae"/><use transform="matrix(0.05,0,0,0.05,71.95,0)" xlink:href="#ah"/><use transform="matrix(0.05,0,0,0.05,81.95,0)" xlink:href="#bc"/><use transform="matrix(0.05,0,0,0.05,93.95,0)" xlink:href="#ac"/><use transform="matrix(0.05,0,0,0.05,103.95,0)" xlink:href="#ab"/><use transform="matrix(0.05,0,0,0.05,109.9,0)" xlink:href="#ad"/><use transform="matrix(0.05,0,0,0.05,118.9,0)" xlink:href="#ai"/><use transform="matrix(0.05,0,0,0.05,128.9,0)" xlink:href="#aZ"/><use transform="matrix(0.05,0,0,0.05,138.9,0)" xlink:href="#ae"/><use transform="matrix(0.05,0,0,0.05,148.9,0)" xlink:href="#bb"/></g><path fill="#333" d="M127-220V0H93v-220H8v-28h204v28h-85" id="bd"/><path fill="#333" d="M194 0L95-120 63-95V0H30v-248h33v124l119-124h40L117-140 236 0h-42" id="be"/><g id="t"><use transform="matrix(0.05,0,0,0.05,0,0)" xlink:href="#aW"/><use transform="matrix(0.05,0,0,0.05,9,0)" xlink:href="#ae"/><use transform="matrix(0.05,0,0,0.05,19,0)" xlink:href="#aa"/><use transform="matrix(0.05,0,0,0.05,29,0)" xlink:href="#ae"/><use transform="matrix(0.05,0,0,0.05,39,0)" xlink:href="#aW"/><use transform="matrix(0.05,0,0,0.05,48,0)" xlink:href="#ag"/><use transform="matrix(0.05,0,0,0.05,51.95,0)" xlink:href="#ah"/><use transform="matrix(0.05,0,0,0.05,61.95,0)" xlink:href="#ae"/><use transform="matrix(0.05,0,0,0.05,71.95,0)" xlink:href="#ah"/><use transform="matrix(0.05,0,0,0.05,81.95,0)" xlink:href="#bd"/><use transform="matrix(0.05,0,0,0.05,92.25,0)" xlink:href="#ab"/><use transform="matrix(0.05,0,0,0.05,98.2,0)" xlink:href="#ae"/><use transform="matrix(0.05,0,0,0.05,108.2,0)" xlink:href="#aZ"/><use transform="matrix(0.05,0,0,0.05,118.2,0)" xlink:href="#ad"/><use transform="matrix(0.05,0,0,0.05,127.2,0)" xlink:href="#aa"/><use transform="matrix(0.05,0,0,0.05,137.2,0)" xlink:href="#ai"/><use transform="matrix(0.05,0,0,0.05,147.2,0)" xlink:href="#ab"/><use transform="matrix(0.05,0,0,0.05,153.14999999999998,0)" xlink:href="#an"/><use transform="matrix(0.05,0,0,0.05,158.14999999999998,0)" xlink:href="#ac"/><use transform="matrix(0.05,0,0,0.05,168.14999999999998,0)" xlink:href="#be"/><use transform="matrix(0.05,0,0,0.05,180.14999999999998,0)" xlink:href="#al"/><use transform="matrix(0.05,0,0,0.05,190.14999999999998,0)" xlink:href="#bb"/></g><g id="u"><use transform="matrix(0.05,0,0,0.05,0,0)" xlink:href="#ah"/><use transform="matrix(0.05,0,0,0.05,10,0)" xlink:href="#ai"/><use transform="matrix(0.05,0,0,0.05,20,0)" xlink:href="#ak"/><use transform="matrix(0.05,0,0,0.05,30,0)" xlink:href="#ao"/><use transform="matrix(0.05,0,0,0.05,40,0)" xlink:href="#aX"/><use transform="matrix(0.05,0,0,0.05,43.95,0)" xlink:href="#ac"/></g><g id="v"><use transform="matrix(0.05,0,0,0.05,0,0)" xlink:href="#aZ"/><use transform="matrix(0.05,0,0,0.05,10,0)" xlink:href="#ai"/><use transform="matrix(0.05,0,0,0.05,20,0)" xlink:href="#ba"/><use transform="matrix(0.05,0,0,0.05,34.95,0)" xlink:href="#ak"/><use transform="matrix(0.05,0,0,0.05,44.95,0)" xlink:href="#aZ"/><use transform="matrix(0.05,0,0,0.05,54.95,0)" xlink:href="#ag"/><use transform="matrix(0.05,0,0,0.05,58.900000000000006,0)" xlink:href="#aW"/><use transform="matrix(0.05,0,0,0.05,67.9,0)" xlink:href="#ag"/><use transform="matrix(0.05,0,0,0.05,71.85000000000001,0)" xlink:href="#ai"/><use transform="matrix(0.05,0,0,0.05,81.85000000000001,0)" xlink:href="#aZ"/></g><g id="w"><use transform="matrix(0.05,0,0,0.05,0,0)" xlink:href="#ao"/><use transform="matrix(0.05,0,0,0.05,10,0)" xlink:href="#ai"/><use transform="matrix(0.05,0,0,0.05,20,0)" xlink:href="#ai"/><use transform="matrix(0.05,0,0,0.05,30,0)" xlink:href="#aX"/><use transform="matrix(0.05,0,0,0.05,33.95,0)" xlink:href="#ac"/><use transform="matrix(0.05,0,0,0.05,43.95,0)" xlink:href="#ae"/><use transform="matrix(0.05,0,0,0.05,53.95,0)" xlink:href="#aZ"/></g><path fill="#333" d="M87 75C49 33 22-17 22-94c0-76 28-126 65-167h31c-38 41-64 92-64 168S80 34 118 75H87" id="bf"/><path fill="#333" d="M68-38c1 34 0 65-14 84H32c9-13 17-26 17-46H33v-38h35" id="bg"/><g id="x"><use transform="matrix(0.05,0,0,0.05,0,0)" xlink:href="#af"/><use transform="matrix(0.05,0,0,0.05,11,0)" xlink:href="#ac"/><use transform="matrix(0.05,0,0,0.05,21,0)" xlink:href="#al"/><use transform="matrix(0.05,0,0,0.05,31,0)" xlink:href="#ag"/><use transform="matrix(0.05,0,0,0.05,34.95,0)" xlink:href="#aW"/><use transform="matrix(0.05,0,0,0.05,43.95,0)" xlink:href="#ak"/><use transform="matrix(0.05,0,0,0.05,53.95,0)" xlink:href="#aX"/><use transform="matrix(0.05,0,0,0.05,57.900000000000006,0)" xlink:href="#ai"/><use transform="matrix(0.05,0,0,0.05,67.9,0)" xlink:href="#bf"/><use transform="matrix(0.05,0,0,0.05,73.85000000000001,0)" xlink:href="#aZ"/><use transform="matrix(0.05,0,0,0.05,83.85000000000001,0)" xlink:href="#ak"/><use transform="matrix(0.05,0,0,0.05,93.85000000000001,0)" xlink:href="#Z"/><use transform="matrix(0.05,0,0,0.05,108.80000000000001,0)" xlink:href="#ac"/><use transform="matrix(0.05,0,0,0.05,118.80000000000001,0)" xlink:href="#ab"/><use transform="matrix(0.05,0,0,0.05,124.75,0)" xlink:href="#ai"/><use transform="matrix(0.05,0,0,0.05,134.75,0)" xlink:href="#ba"/><use transform="matrix(0.05,0,0,0.05,149.7,0)" xlink:href="#ak"/><use transform="matrix(0.05,0,0,0.05,159.7,0)" xlink:href="#aZ"/><use transform="matrix(0.05,0,0,0.05,169.7,0)" xlink:href="#ag"/><use transform="matrix(0.05,0,0,0.05,173.64999999999998,0)" xlink:href="#aW"/><use transform="matrix(0.05,0,0,0.05,182.64999999999998,0)" xlink:href="#ag"/><use transform="matrix(0.05,0,0,0.05,186.59999999999997,0)" xlink:href="#ai"/><use transform="matrix(0.05,0,0,0.05,196.59999999999997,0)" xlink:href="#aZ"/><use transform="matrix(0.05,0,0,0.05,206.59999999999997,0)" xlink:href="#bg"/></g><g id="y"><use transform="matrix(0.05,0,0,0.05,0,0)" xlink:href="#an"/><use transform="matrix(0.05,0,0,0.05,5,0)" xlink:href="#ag"/><use transform="matrix(0.05,0,0,0.05,8.95,0)" xlink:href="#aa"/><use transform="matrix(0.05,0,0,0.05,18.95,0)" xlink:href="#ai"/><use transform="matrix(0.05,0,0,0.05,28.950000000000003,0)" xlink:href="#am"/><use transform="matrix(0.05,0,0,0.05,40.95,0)" xlink:href="#ab"/><use transform="matrix(0.05,0,0,0.05,46.900000000000006,0)" xlink:href="#Z"/><use transform="matrix(0.05,0,0,0.05,61.85,0)" xlink:href="#ae"/><use transform="matrix(0.05,0,0,0.05,71.85000000000001,0)" xlink:href="#Z"/><use transform="matrix(0.05,0,0,0.05,86.80000000000001,0)" xlink:href="#ac"/><use transform="matrix(0.05,0,0,0.05,96.80000000000001,0)" xlink:href="#aZ"/><use transform="matrix(0.05,0,0,0.05,106.80000000000001,0)" xlink:href="#an"/><use transform="matrix(0.05,0,0,0.05,111.80000000000001,0)" xlink:href="#ai"/><use transform="matrix(0.05,0,0,0.05,121.80000000000001,0)" xlink:href="#bg"/></g><g id="z"><use transform="matrix(0.05,0,0,0.05,0,0)" xlink:href="#aW"/><use transform="matrix(0.05,0,0,0.05,9,0)" xlink:href="#ae"/><use transform="matrix(0.05,0,0,0.05,19,0)" xlink:href="#aa"/><use transform="matrix(0.05,0,0,0.05,29,0)" xlink:href="#ae"/><use transform="matrix(0.05,0,0,0.05,39,0)" xlink:href="#aW"/><use transform="matrix(0.05,0,0,0.05,48,0)" xlink:href="#ag"/><use transform="matrix(0.05,0,0,0.05,51.95,0)" xlink:href="#ah"/><use transform="matrix(0.05,0,0,0.05,61.95,0)" xlink:href="#ae"/><use transform="matrix(0.05,0,0,0.05,71.95,0)" xlink:href="#ah"/><use transform="matrix(0.05,0,0,0.05,81.95,0)" xlink:href="#bc"/><use transform="matrix(0.05,0,0,0.05,93.95,0)" xlink:href="#ac"/><use transform="matrix(0.05,0,0,0.05,103.95,0)" xlink:href="#ab"/><use transform="matrix(0.05,0,0,0.05,109.9,0)" xlink:href="#ad"/><use transform="matrix(0.05,0,0,0.05,118.9,0)" xlink:href="#ai"/><use transform="matrix(0.05,0,0,0.05,128.9,0)" xlink:href="#aZ"/><use transform="matrix(0.05,0,0,0.05,138.9,0)" xlink:href="#ae"/><use transform="matrix(0.05,0,0,0.05,148.9,0)" xlink:href="#bg"/></g><path fill="#333" d="M143 0L79-87 56-68V0H24v-261h32v163l83-92h37l-77 82L181 0h-38" id="bh"/><g id="A"><use transform="matrix(0.05,0,0,0.05,0,0)" xlink:href="#aW"/><use transform="matrix(0.05,0,0,0.05,9,0)" xlink:href="#ae"/><use transform="matrix(0.05,0,0,0.05,19,0)" xlink:href="#aa"/><use transform="matrix(0.05,0,0,0.05,29,0)" xlink:href="#ae"/><use transform="matrix(0.05,0,0,0.05,39,0)" xlink:href="#aW"/><use transform="matrix(0.05,0,0,0.05,48,0)" xlink:href="#ag"/><use transform="matrix(0.05,0,0,0.05,51.95,0)" xlink:href="#ah"/><use transform="matrix(0.05,0,0,0.05,61.95,0)" xlink:href="#ae"/><use transform="matrix(0.05,0,0,0.05,71.95,0)" xlink:href="#ah"/><use transform="matrix(0.05,0,0,0.05,81.95,0)" xlink:href="#bd"/><use transform="matrix(0.05,0,0,0.05,92.25,0)" xlink:href="#ab"/><use transform="matrix(0.05,0,0,0.05,98.2,0)" xlink:href="#aZ"/><use transform="matrix(0.05,0,0,0.05,108.2,0)" xlink:href="#ae"/><use transform="matrix(0.05,0,0,0.05,118.2,0)" xlink:href="#ad"/><use transform="matrix(0.05,0,0,0.05,127.2,0)" xlink:href="#aa"/><use transform="matrix(0.05,0,0,0.05,137.2,0)" xlink:href="#ai"/><use transform="matrix(0.05,0,0,0.05,147.2,0)" xlink:href="#ab"/><use transform="matrix(0.05,0,0,0.05,153.14999999999998,0)" xlink:href="#an"/><use transform="matrix(0.05,0,0,0.05,158.14999999999998,0)" xlink:href="#ac"/><use transform="matrix(0.05,0,0,0.05,168.14999999999998,0)" xlink:href="#bh"/><use transform="matrix(0.05,0,0,0.05,177.14999999999998,0)" xlink:href="#al"/><use transform="matrix(0.05,0,0,0.05,187.14999999999998,0)" xlink:href="#bg"/></g><path fill="#333" d="M33-261c38 41 65 92 65 168S71 34 33 75H2C39 34 66-17 66-93S39-220 2-261h31" id="bi"/><g id="B"><use transform="matrix(0.05,0,0,0.05,0,0)" xlink:href="#aZ"/><use transform="matrix(0.05,0,0,0.05,10,0)" xlink:href="#ai"/><use transform="matrix(0.05,0,0,0.05,20,0)" xlink:href="#ba"/><use transform="matrix(0.05,0,0,0.05,34.95,0)" xlink:href="#ak"/><use transform="matrix(0.05,0,0,0.05,44.95,0)" xlink:href="#aZ"/><use transform="matrix(0.05,0,0,0.05,54.95,0)" xlink:href="#ag"/><use transform="matrix(0.05,0,0,0.05,58.900000000000006,0)" xlink:href="#aW"/><use transform="matrix(0.05,0,0,0.05,67.9,0)" xlink:href="#ag"/><use transform="matrix(0.05,0,0,0.05,71.85000000000001,0)" xlink:href="#ai"/><use transform="matrix(0.05,0,0,0.05,81.85000000000001,0)" xlink:href="#aZ"/><use transform="matrix(0.05,0,0,0.05,91.85000000000001,0)" xlink:href="#bi"/></g><path fill="#333" d="M145-31C134-9 116 4 85 4 32 4 16-35 15-94c0-59 17-99 70-100 32-1 48 14 60 33 0-11-1-24 2-32h30l-1 268h-32zM93-21c41 0 51-33 51-76s-8-73-50-73c-40 0-46 35-46 75s5 74 45 74" id="bj"/><path fill="#333" d="M185-189c-5-48-123-54-124 2 14 75 158 14 163 119 3 78-121 87-175 55-17-10-28-26-33-46l33-7c5 56 141 63 141-1 0-78-155-14-162-118-5-82 145-84 179-34 5 7 8 16 11 25" id="bk"/><path fill="#333" d="M155-56V0h-30v-56H8v-25l114-167h33v167h35v25h-35zm-30-156c-27 46-58 90-88 131h88v-131" id="bl"/><g id="C"><use transform="matrix(0.05,0,0,0.05,0,0)" xlink:href="#bd"/><use transform="matrix(0.05,0,0,0.05,8.950000000000001,0)" xlink:href="#ae"/><use transform="matrix(0.05,0,0,0.05,18.950000000000003,0)" xlink:href="#aZ"/><use transform="matrix(0.05,0,0,0.05,28.950000000000003,0)" xlink:href="#bj"/><use transform="matrix(0.05,0,0,0.05,38.95,0)" xlink:href="#ak"/><use transform="matrix(0.05,0,0,0.05,48.95,0)" xlink:href="#ac"/><use transform="matrix(0.05,0,0,0.05,58.95,0)" xlink:href="#bk"/><use transform="matrix(0.05,0,0,0.05,70.95,0)" xlink:href="#aV"/><use transform="matrix(0.05,0,0,0.05,80.95,0)" xlink:href="#ba"/><use transform="matrix(0.05,0,0,0.05,95.9,0)" xlink:href="#bl"/></g><path fill="#333" d="M197 0v-115H63V0H30v-248h33v105h134v-105h34V0h-34" id="bm"/><path fill="#333" d="M179-190L93 31C79 59 56 82 12 73V49c39 6 53-20 64-50L1-190h34L92-34l54-156h33" id="bn"/><g id="D"><use transform="matrix(0.05,0,0,0.05,0,0)" xlink:href="#ba"/><use transform="matrix(0.05,0,0,0.05,14.950000000000001,0)" xlink:href="#ai"/><use transform="matrix(0.05,0,0,0.05,24.950000000000003,0)" xlink:href="#an"/><use transform="matrix(0.05,0,0,0.05,29.950000000000003,0)" xlink:href="#ai"/><use transform="matrix(0.05,0,0,0.05,39.95,0)" xlink:href="#bm"/><use transform="matrix(0.05,0,0,0.05,52.900000000000006,0)" xlink:href="#ae"/><use transform="matrix(0.05,0,0,0.05,62.900000000000006,0)" xlink:href="#ab"/><use transform="matrix(0.05,0,0,0.05,68.85000000000001,0)" xlink:href="#aX"/><use transform="matrix(0.05,0,0,0.05,72.80000000000001,0)" xlink:href="#ac"/><use transform="matrix(0.05,0,0,0.05,82.80000000000001,0)" xlink:href="#bn"/></g><path fill="#333" d="M212-179c-10-28-35-45-73-45-59 0-87 40-87 99 0 60 29 101 89 101 43 0 62-24 78-52l27 14C228-24 195 4 139 4 59 4 22-46 18-125c-6-104 99-153 187-111 19 9 31 26 39 46" id="bo"/><g id="E"><use transform="matrix(0.05,0,0,0.05,0,0)" xlink:href="#bo"/><use transform="matrix(0.05,0,0,0.05,12.950000000000001,0)" xlink:href="#ae"/><use transform="matrix(0.05,0,0,0.05,22.950000000000003,0)" xlink:href="#Z"/><use transform="matrix(0.05,0,0,0.05,37.900000000000006,0)" xlink:href="#ag"/><use transform="matrix(0.05,0,0,0.05,41.85000000000001,0)" xlink:href="#ai"/><use transform="matrix(0.05,0,0,0.05,51.85,0)" xlink:href="#aZ"/><use transform="matrix(0.05,0,0,0.05,61.85,0)" xlink:href="#bk"/><use transform="matrix(0.05,0,0,0.05,73.85000000000001,0)" xlink:href="#ak"/><use transform="matrix(0.05,0,0,0.05,83.85000000000001,0)" xlink:href="#Z"/><use transform="matrix(0.05,0,0,0.05,98.80000000000001,0)" xlink:href="#bm"/><use transform="matrix(0.05,0,0,0.05,111.75,0)" xlink:href="#ag"/></g><path fill="#333" d="M160-131c35 5 61 23 61 61C221 17 115-2 30 0v-248c76 3 177-17 177 60 0 33-19 50-47 57zm-97-11c50-1 110 9 110-42 0-47-63-36-110-37v79zm0 115c55-2 124 14 124-45 0-56-70-42-124-44v89" id="bp"/><path fill="#333" d="M54-142c48-35 137-8 131 61C196 18 31 33 14-55l32-4c7 23 22 37 52 37 35-1 51-22 54-58 4-55-73-65-99-34H22l8-134h141v27H59" id="bq"/><path fill="#333" d="M110-160c48 1 74 30 74 79 0 53-28 85-80 85-65 0-83-55-86-122-5-90 50-162 133-122 14 7 22 21 27 39l-31 6c-5-40-67-38-82-6-9 19-15 44-15 74 11-20 30-34 60-33zm-7 138c34 0 49-23 49-58s-16-56-50-56c-29 0-50 16-49 49 1 36 15 65 50 65" id="br"/><g id="F"><use transform="matrix(0.05,0,0,0.05,0,0)" xlink:href="#bp"/><use transform="matrix(0.05,0,0,0.05,12,0)" xlink:href="#ai"/><use transform="matrix(0.05,0,0,0.05,22,0)" xlink:href="#Z"/><use transform="matrix(0.05,0,0,0.05,36.95,0)" xlink:href="#ao"/><use transform="matrix(0.05,0,0,0.05,46.95,0)" xlink:href="#ae"/><use transform="matrix(0.05,0,0,0.05,56.95,0)" xlink:href="#ab"/><use transform="matrix(0.05,0,0,0.05,62.900000000000006,0)" xlink:href="#ah"/><use transform="matrix(0.05,0,0,0.05,72.9,0)" xlink:href="#ac"/><use transform="matrix(0.05,0,0,0.05,82.9,0)" xlink:href="#ab"/><use transform="matrix(0.05,0,0,0.05,88.85000000000001,0)" xlink:href="#ai"/><use transform="matrix(0.05,0,0,0.05,98.85000000000001,0)" xlink:href="#bp"/><use transform="matrix(0.05,0,0,0.05,110.85000000000001,0)" xlink:href="#bq"/><use transform="matrix(0.05,0,0,0.05,120.85000000000001,0)" xlink:href="#br"/></g><path fill="#333" d="M63-220v92h138v28H63V0H30v-248h175v28H63" id="bs"/><g id="G"><use transform="matrix(0.05,0,0,0.05,0,0)" xlink:href="#bk"/><use transform="matrix(0.05,0,0,0.05,12,0)" xlink:href="#aa"/><use transform="matrix(0.05,0,0,0.05,22,0)" xlink:href="#ac"/><use transform="matrix(0.05,0,0,0.05,32,0)" xlink:href="#ac"/><use transform="matrix(0.05,0,0,0.05,42,0)" xlink:href="#ah"/><use transform="matrix(0.05,0,0,0.05,52,0)" xlink:href="#bs"/><use transform="matrix(0.05,0,0,0.05,62.95,0)" xlink:href="#ag"/><use transform="matrix(0.05,0,0,0.05,66.9,0)" xlink:href="#al"/><use transform="matrix(0.05,0,0,0.05,76.9,0)" xlink:href="#aV"/><use transform="matrix(0.05,0,0,0.05,86.9,0)" xlink:href="#an"/><use transform="matrix(0.05,0,0,0.05,91.9,0)" xlink:href="#ac"/><use transform="matrix(0.05,0,0,0.05,101.9,0)" xlink:href="#ab"/></g><g id="H"><use transform="matrix(0.05,0,0,0.05,0,0)" xlink:href="#bo"/><use transform="matrix(0.05,0,0,0.05,12.950000000000001,0)" xlink:href="#ab"/><use transform="matrix(0.05,0,0,0.05,18.900000000000002,0)" xlink:href="#ak"/><use transform="matrix(0.05,0,0,0.05,28.900000000000002,0)" xlink:href="#aW"/><use transform="matrix(0.05,0,0,0.05,37.900000000000006,0)" xlink:href="#ac"/><use transform="matrix(0.05,0,0,0.05,47.900000000000006,0)" xlink:href="#ab"/><use transform="matrix(0.05,0,0,0.05,53.85,0)" xlink:href="#ai"/><use transform="matrix(0.05,0,0,0.05,63.85,0)" xlink:href="#am"/><use transform="matrix(0.05,0,0,0.05,75.85000000000001,0)" xlink:href="#aX"/><use transform="matrix(0.05,0,0,0.05,79.80000000000001,0)" xlink:href="#ae"/><use transform="matrix(0.05,0,0,0.05,89.80000000000001,0)" xlink:href="#ao"/><use transform="matrix(0.05,0,0,0.05,99.80000000000001,0)" xlink:href="#ae"/><use transform="matrix(0.05,0,0,0.05,109.80000000000001,0)" xlink:href="#Z"/><use transform="matrix(0.05,0,0,0.05,124.75,0)" xlink:href="#ae"/></g><path fill="#333" d="M108 0H70L1-190h34L89-25l56-165h34" id="bt"/><g id="I"><use transform="matrix(0.05,0,0,0.05,0,0)" xlink:href="#bc"/><use transform="matrix(0.05,0,0,0.05,12,0)" xlink:href="#ai"/><use transform="matrix(0.05,0,0,0.05,22,0)" xlink:href="#ab"/><use transform="matrix(0.05,0,0,0.05,27.950000000000003,0)" xlink:href="#an"/><use transform="matrix(0.05,0,0,0.05,32.95,0)" xlink:href="#ae"/><use transform="matrix(0.05,0,0,0.05,42.95,0)" xlink:href="#am"/><use transform="matrix(0.05,0,0,0.05,54.6,0)" xlink:href="#bt"/><use transform="matrix(0.05,0,0,0.05,63.6,0)" xlink:href="#bp"/><use transform="matrix(0.05,0,0,0.05,75.6,0)" xlink:href="#ag"/><use transform="matrix(0.05,0,0,0.05,79.55,0)" xlink:href="#ad"/><use transform="matrix(0.05,0,0,0.05,88.55,0)" xlink:href="#Z"/><use transform="matrix(0.05,0,0,0.05,103.5,0)" xlink:href="#ae"/><use transform="matrix(0.05,0,0,0.05,113.5,0)" xlink:href="#ab"/><use transform="matrix(0.05,0,0,0.05,119.45,0)" xlink:href="#aW"/><use transform="matrix(0.05,0,0,0.05,128.45,0)" xlink:href="#bh"/></g><path d="M15-91v-56l181-69v40L49-119l147 57v40" id="bu"/><path d="M24 0v-248h52V0H24" id="bv"/><path d="M135-194c87-1 58 113 63 194h-50c-7-57 23-157-34-157-59 0-34 97-39 157H25l-1-190h47c2 12-1 28 3 38 12-26 28-41 61-42" id="bw"/><path d="M115-3C79 11 28 4 28-45v-112H4v-33h27l15-45h31v45h36v33H77v99c-1 23 16 31 38 25v30" id="bx"/><path d="M185-48c-13 30-37 53-82 52C43 2 14-33 14-96s30-98 90-98c62 0 83 45 84 108H66c0 31 8 55 39 56 18 0 30-7 34-22zm-45-69c5-46-57-63-70-21-2 6-4 13-4 21h74" id="by"/><path d="M135-150c-39-12-60 13-60 57V0H25l-1-190h47c2 13-1 29 3 40 6-28 27-53 61-41v41" id="bz"/><path d="M121-226c-27-7-43 5-38 36h38v33H83V0H34v-157H6v-33h28c-9-59 32-81 87-68v32" id="bA"/><path d="M133-34C117-15 103 5 69 4 32 3 11-16 11-54c-1-60 55-63 116-61 1-26-3-47-28-47-18 1-26 9-28 27l-52-2c7-38 36-58 82-57s74 22 75 68l1 82c-1 14 12 18 25 15v27c-30 8-71 5-69-32zm-48 3c29 0 43-24 42-57-32 0-66-3-65 30 0 17 8 27 23 27" id="bB"/><path d="M12 0v-35l95-120H19v-35h142v35L67-36h103V0H12" id="bC"/><path d="M15-22v-40l146-57-146-57v-40l181 69v56" id="bD"/><g id="J"><use transform="matrix(0.05,0,0,0.05,0,0)" xlink:href="#bu"/><use transform="matrix(0.05,0,0,0.05,10.5,0)" xlink:href="#bu"/><use transform="matrix(0.05,0,0,0.05,21,0)" xlink:href="#bv"/><use transform="matrix(0.05,0,0,0.05,26,0)" xlink:href="#bw"/><use transform="matrix(0.05,0,0,0.05,36.95,0)" xlink:href="#bx"/><use transform="matrix(0.05,0,0,0.05,42.900000000000006,0)" xlink:href="#by"/><use transform="matrix(0.05,0,0,0.05,52.900000000000006,0)" xlink:href="#bz"/><use transform="matrix(0.05,0,0,0.05,59.900000000000006,0)" xlink:href="#bA"/><use transform="matrix(0.05,0,0,0.05,65.85000000000001,0)" xlink:href="#bB"/><use transform="matrix(0.05,0,0,0.05,75.85000000000001,0)" xlink:href="#bC"/><use transform="matrix(0.05,0,0,0.05,84.85000000000001,0)" xlink:href="#bD"/><use transform="matrix(0.05,0,0,0.05,95.35000000000001,0)" xlink:href="#bD"/></g><path d="M24 0v-248h52v208h133V0H24" id="bE"/><path d="M199 0l-22-63H83L61 0H9l90-248h61L250 0h-51zm-33-102l-36-108c-10 38-24 72-36 108h72" id="bF"/><path d="M84 4C32 4 15-41 15-95c0-55 18-99 73-99 29 0 47 12 58 34l2-30h48l-1 265h-49V-32C136-9 114 4 84 4zm21-34c32 0 41-29 41-66 0-36-9-64-40-64-33 0-39 30-40 65 0 43 13 65 39 65" id="bG"/><path d="M85 4C-2 5 27-109 22-190h50c7 57-23 150 33 157 60-5 35-97 40-157h50l1 190h-47c-2-12 1-28-3-38-12 25-28 42-61 42" id="bH"/><g id="K"><use transform="matrix(0.05,0,0,0.05,0,0)" xlink:href="#bE"/><use transform="matrix(0.05,0,0,0.05,10.950000000000001,0)" xlink:href="#bB"/><use transform="matrix(0.05,0,0,0.05,20.950000000000003,0)" xlink:href="#bw"/><use transform="matrix(0.05,0,0,0.05,31.900000000000006,0)" xlink:href="#bC"/><use transform="matrix(0.05,0,0,0.05,40.900000000000006,0)" xlink:href="#bB"/><use transform="matrix(0.05,0,0,0.05,50.900000000000006,0)" xlink:href="#bz"/><use transform="matrix(0.05,0,0,0.05,57.900000000000006,0)" xlink:href="#bF"/><use transform="matrix(0.05,0,0,0.05,70.85000000000001,0)" xlink:href="#bx"/><use transform="matrix(0.05,0,0,0.05,76.80000000000001,0)" xlink:href="#bB"/><use transform="matrix(0.05,0,0,0.05,86.80000000000001,0)" xlink:href="#bG"/><use transform="matrix(0.05,0,0,0.05,97.75000000000001,0)" xlink:href="#bH"/><use transform="matrix(0.05,0,0,0.05,108.7,0)" xlink:href="#by"/></g><path fill="#333" d="M118-107v75H92v-75H18v-26h74v-75h26v75h74v26h-74" id="bI"/><use transform="matrix(0.05,0,0,0.05,0,0)" xlink:href="#bI" id="L"/><path fill="#333" d="M9 0v-24l116-142H16v-24h144v24L44-24h123V0H9" id="bJ"/><g id="M"><use transform="matrix(0.05,0,0,0.05,0,0)" xlink:href="#aX"/><use transform="matrix(0.05,0,0,0.05,3.95,0)" xlink:href="#ae"/><use transform="matrix(0.05,0,0,0.05,13.949999999999998,0)" xlink:href="#aZ"/><use transform="matrix(0.05,0,0,0.05,23.95,0)" xlink:href="#bJ"/><use transform="matrix(0.05,0,0,0.05,32.95,0)" xlink:href="#ae"/><use transform="matrix(0.05,0,0,0.05,42.95,0)" xlink:href="#ab"/><use transform="matrix(0.05,0,0,0.05,48.900000000000006,0)" xlink:href="#am"/><use transform="matrix(0.05,0,0,0.05,60.900000000000006,0)" xlink:href="#an"/><use transform="matrix(0.05,0,0,0.05,65.9,0)" xlink:href="#ae"/><use transform="matrix(0.05,0,0,0.05,75.9,0)" xlink:href="#bj"/><use transform="matrix(0.05,0,0,0.05,85.9,0)" xlink:href="#ak"/><use transform="matrix(0.05,0,0,0.05,95.9,0)" xlink:href="#ac"/><use transform="matrix(0.05,0,0,0.05,105.9,0)" xlink:href="#bf"/><use transform="matrix(0.05,0,0,0.05,111.85000000000001,0)" xlink:href="#an"/><use transform="matrix(0.05,0,0,0.05,116.85000000000001,0)" xlink:href="#ag"/><use transform="matrix(0.05,0,0,0.05,120.80000000000001,0)" xlink:href="#aa"/><use transform="matrix(0.05,0,0,0.05,130.8,0)" xlink:href="#ai"/><use transform="matrix(0.05,0,0,0.05,140.8,0)" xlink:href="#am"/><use transform="matrix(0.05,0,0,0.05,152.8,0)" xlink:href="#ab"/><use transform="matrix(0.05,0,0,0.05,158.75,0)" xlink:href="#Z"/><use transform="matrix(0.05,0,0,0.05,173.7,0)" xlink:href="#ae"/><use transform="matrix(0.05,0,0,0.05,183.7,0)" xlink:href="#Z"/><use transform="matrix(0.05,0,0,0.05,198.64999999999998,0)" xlink:href="#ac"/><use transform="matrix(0.05,0,0,0.05,208.64999999999998,0)" xlink:href="#aZ"/><use transform="matrix(0.05,0,0,0.05,218.64999999999998,0)" xlink:href="#an"/><use transform="matrix(0.05,0,0,0.05,223.64999999999998,0)" xlink:href="#ai"/><use transform="matrix(0.05,0,0,0.05,233.64999999999998,0)" xlink:href="#bb"/><use transform="matrix(0.05,0,0,0.05,238.64999999999998,0)" xlink:href="#bk"/><use transform="matrix(0.05,0,0,0.05,250.64999999999998,0)" xlink:href="#an"/><use transform="matrix(0.05,0,0,0.05,255.64999999999998,0)" xlink:href="#ab"/><use transform="matrix(0.05,0,0,0.05,261.59999999999997,0)" xlink:href="#ag"/><use transform="matrix(0.05,0,0,0.05,265.54999999999995,0)" xlink:href="#aZ"/><use transform="matrix(0.05,0,0,0.05,275.54999999999995,0)" xlink:href="#al"/><use transform="matrix(0.05,0,0,0.05,285.54999999999995,0)" xlink:href="#bg"/></g><g id="N"><use transform="matrix(0.05,0,0,0.05,0,0)" xlink:href="#aZ"/><use transform="matrix(0.05,0,0,0.05,10,0)" xlink:href="#ai"/><use transform="matrix(0.05,0,0,0.05,20,0)" xlink:href="#ba"/><use transform="matrix(0.05,0,0,0.05,34.95,0)" xlink:href="#ak"/><use transform="matrix(0.05,0,0,0.05,44.95,0)" xlink:href="#aZ"/><use transform="matrix(0.05,0,0,0.05,54.95,0)" xlink:href="#ag"/><use transform="matrix(0.05,0,0,0.05,58.900000000000006,0)" xlink:href="#aW"/><use transform="matrix(0.05,0,0,0.05,67.9,0)" xlink:href="#ag"/><use transform="matrix(0.05,0,0,0.05,71.85000000000001,0)" xlink:href="#ai"/><use transform="matrix(0.05,0,0,0.05,81.85000000000001,0)" xlink:href="#aZ"/><use transform="matrix(0.05,0,0,0.05,91.85000000000001,0)" xlink:href="#bb"/><use transform="matrix(0.05,0,0,0.05,96.85000000000001,0)" xlink:href="#ao"/><use transform="matrix(0.05,0,0,0.05,106.85000000000001,0)" xlink:href="#ai"/><use transform="matrix(0.05,0,0,0.05,116.85000000000001,0)" xlink:href="#ai"/><use transform="matrix(0.05,0,0,0.05,126.85000000000001,0)" xlink:href="#aX"/><use transform="matrix(0.05,0,0,0.05,130.8,0)" xlink:href="#ac"/><use transform="matrix(0.05,0,0,0.05,140.8,0)" xlink:href="#ae"/><use transform="matrix(0.05,0,0,0.05,150.8,0)" xlink:href="#aZ"/><use transform="matrix(0.05,0,0,0.05,160.8,0)" xlink:href="#bg"/></g><g id="O"><use transform="matrix(0.05,0,0,0.05,0,0)" xlink:href="#aZ"/><use transform="matrix(0.05,0,0,0.05,10,0)" xlink:href="#ak"/><use transform="matrix(0.05,0,0,0.05,20,0)" xlink:href="#Z"/><use transform="matrix(0.05,0,0,0.05,34.95,0)" xlink:href="#ac"/><use transform="matrix(0.05,0,0,0.05,44.95,0)" xlink:href="#ab"/><use transform="matrix(0.05,0,0,0.05,50.900000000000006,0)" xlink:href="#ai"/><use transform="matrix(0.05,0,0,0.05,60.900000000000006,0)" xlink:href="#ba"/><use transform="matrix(0.05,0,0,0.05,75.85000000000001,0)" xlink:href="#ak"/><use transform="matrix(0.05,0,0,0.05,85.85000000000001,0)" xlink:href="#aZ"/><use transform="matrix(0.05,0,0,0.05,95.85000000000001,0)" xlink:href="#ag"/><use transform="matrix(0.05,0,0,0.05,99.80000000000001,0)" xlink:href="#aW"/><use transform="matrix(0.05,0,0,0.05,108.80000000000001,0)" xlink:href="#ag"/><use transform="matrix(0.05,0,0,0.05,112.75,0)" xlink:href="#ai"/><use transform="matrix(0.05,0,0,0.05,122.75,0)" xlink:href="#aZ"/><use transform="matrix(0.05,0,0,0.05,132.75,0)" xlink:href="#bb"/><use transform="matrix(0.05,0,0,0.05,137.75,0)" xlink:href="#ag"/><use transform="matrix(0.05,0,0,0.05,141.7,0)" xlink:href="#aZ"/><use transform="matrix(0.05,0,0,0.05,151.7,0)" xlink:href="#an"/><use transform="matrix(0.05,0,0,0.05,156.7,0)" xlink:href="#bi"/></g><g id="P"><use transform="matrix(0.05,0,0,0.05,0,0)" xlink:href="#bk"/><use transform="matrix(0.05,0,0,0.05,12,0)" xlink:href="#an"/><use transform="matrix(0.05,0,0,0.05,17,0)" xlink:href="#ab"/><use transform="matrix(0.05,0,0,0.05,22.95,0)" xlink:href="#ag"/><use transform="matrix(0.05,0,0,0.05,26.899999999999995,0)" xlink:href="#aZ"/><use transform="matrix(0.05,0,0,0.05,36.9,0)" xlink:href="#al"/></g><path fill="#333" d="M190 0L58-211 59 0H30v-248h39L202-35l-2-213h31V0h-41" id="bK"/><path fill="#333" d="M141 0L90-78 38 0H4l68-98-65-92h35l48 74 47-74h35l-64 92 68 98h-35" id="bL"/><g id="Q"><use transform="matrix(0.05,0,0,0.05,0,0)" xlink:href="#bK"/><use transform="matrix(0.05,0,0,0.05,12.950000000000001,0)" xlink:href="#ai"/><use transform="matrix(0.05,0,0,0.05,22.950000000000003,0)" xlink:href="#ba"/><use transform="matrix(0.05,0,0,0.05,37.900000000000006,0)" xlink:href="#ak"/><use transform="matrix(0.05,0,0,0.05,47.900000000000006,0)" xlink:href="#aZ"/><use transform="matrix(0.05,0,0,0.05,57.900000000000006,0)" xlink:href="#ag"/><use transform="matrix(0.05,0,0,0.05,61.85,0)" xlink:href="#aW"/><use transform="matrix(0.05,0,0,0.05,70.85000000000001,0)" xlink:href="#ag"/><use transform="matrix(0.05,0,0,0.05,74.80000000000001,0)" xlink:href="#ai"/><use transform="matrix(0.05,0,0,0.05,84.80000000000001,0)" xlink:href="#aZ"/><use transform="matrix(0.05,0,0,0.05,94.80000000000001,0)" xlink:href="#Y"/><use transform="matrix(0.05,0,0,0.05,106.80000000000001,0)" xlink:href="#bL"/><use transform="matrix(0.05,0,0,0.05,115.80000000000001,0)" xlink:href="#aW"/><use transform="matrix(0.05,0,0,0.05,124.80000000000001,0)" xlink:href="#ac"/><use transform="matrix(0.05,0,0,0.05,134.8,0)" xlink:href="#aa"/><use transform="matrix(0.05,0,0,0.05,144.8,0)" xlink:href="#an"/><use transform="matrix(0.05,0,0,0.05,149.8,0)" xlink:href="#ag"/><use transform="matrix(0.05,0,0,0.05,153.75,0)" xlink:href="#ai"/><use transform="matrix(0.05,0,0,0.05,163.75,0)" xlink:href="#aZ"/></g><g id="R"><use transform="matrix(0.05,0,0,0.05,0,0)" xlink:href="#Y"/><use transform="matrix(0.05,0,0,0.05,12,0)" xlink:href="#bL"/><use transform="matrix(0.05,0,0,0.05,21,0)" xlink:href="#aW"/><use transform="matrix(0.05,0,0,0.05,30,0)" xlink:href="#ac"/><use transform="matrix(0.05,0,0,0.05,40,0)" xlink:href="#aa"/><use transform="matrix(0.05,0,0,0.05,50,0)" xlink:href="#an"/><use transform="matrix(0.05,0,0,0.05,55,0)" xlink:href="#ag"/><use transform="matrix(0.05,0,0,0.05,58.95,0)" xlink:href="#ai"/><use transform="matrix(0.05,0,0,0.05,68.95,0)" xlink:href="#aZ"/></g><g id="S"><use transform="matrix(0.05,0,0,0.05,0,0)" xlink:href="#bc"/><use transform="matrix(0.05,0,0,0.05,12,0)" xlink:href="#ab"/><use transform="matrix(0.05,0,0,0.05,17.95,0)" xlink:href="#ag"/><use transform="matrix(0.05,0,0,0.05,21.9,0)" xlink:href="#aZ"/><use transform="matrix(0.05,0,0,0.05,31.899999999999995,0)" xlink:href="#aW"/><use transform="matrix(0.05,0,0,0.05,40.9,0)" xlink:href="#ag"/><use transform="matrix(0.05,0,0,0.05,44.85,0)" xlink:href="#aa"/><use transform="matrix(0.05,0,0,0.05,54.85,0)" xlink:href="#ae"/><use transform="matrix(0.05,0,0,0.05,64.85,0)" xlink:href="#aX"/></g><g id="T"><use transform="matrix(0.05,0,0,0.05,0,0)" xlink:href="#ba"/><use transform="matrix(0.05,0,0,0.05,14.950000000000001,0)" xlink:href="#ae"/><use transform="matrix(0.05,0,0,0.05,24.950000000000003,0)" xlink:href="#ag"/><use transform="matrix(0.05,0,0,0.05,28.900000000000002,0)" xlink:href="#aZ"/></g><g id="U"><use transform="matrix(0.05,0,0,0.05,0,0)" xlink:href="#Z"/><use transform="matrix(0.05,0,0,0.05,14.950000000000001,0)" xlink:href="#ae"/><use transform="matrix(0.05,0,0,0.05,24.950000000000003,0)" xlink:href="#ag"/><use transform="matrix(0.05,0,0,0.05,28.900000000000002,0)" xlink:href="#aZ"/></g><g id="V"><use transform="matrix(0.05,0,0,0.05,0,0)" xlink:href="#bt"/><use transform="matrix(0.05,0,0,0.05,9,0)" xlink:href="#ai"/><use transform="matrix(0.05,0,0,0.05,19,0)" xlink:href="#ag"/><use transform="matrix(0.05,0,0,0.05,22.95,0)" xlink:href="#ah"/></g><g id="W"><use transform="matrix(0.05,0,0,0.05,0,0)" xlink:href="#bd"/><use transform="matrix(0.05,0,0,0.05,10.3,0)" xlink:href="#ag"/><use transform="matrix(0.05,0,0,0.05,14.25,0)" xlink:href="#aa"/><use transform="matrix(0.05,0,0,0.05,24.25,0)" xlink:href="#ai"/><use transform="matrix(0.05,0,0,0.05,34.25,0)" xlink:href="#am"/><use transform="matrix(0.05,0,0,0.05,46.25,0)" xlink:href="#ab"/><use transform="matrix(0.05,0,0,0.05,52.2,0)" xlink:href="#Z"/><use transform="matrix(0.05,0,0,0.05,67.15,0)" xlink:href="#ae"/><use transform="matrix(0.05,0,0,0.05,77.15,0)" xlink:href="#Z"/><use transform="matrix(0.05,0,0,0.05,92.10000000000001,0)" xlink:href="#ac"/><use transform="matrix(0.05,0,0,0.05,102.10000000000001,0)" xlink:href="#aZ"/><use transform="matrix(0.05,0,0,0.05,112.10000000000001,0)" xlink:href="#an"/><use transform="matrix(0.05,0,0,0.05,117.10000000000001,0)" xlink:href="#ai"/></g><g id="X"><use transform="matrix(0.05,0,0,0.05,0,0)" xlink:href="#aZ"/><use transform="matrix(0.05,0,0,0.05,10,0)" xlink:href="#ai"/><use transform="matrix(0.05,0,0,0.05,20,0)" xlink:href="#Z"/><use transform="matrix(0.05,0,0,0.05,34.95,0)" xlink:href="#ao"/><use transform="matrix(0.05,0,0,0.05,44.95,0)" xlink:href="#ab"/><use transform="matrix(0.05,0,0,0.05,50.900000000000006,0)" xlink:href="#ac"/><use transform="matrix(0.05,0,0,0.05,60.900000000000006,0)" xlink:href="#am"/><use transform="matrix(0.05,0,0,0.05,72.9,0)" xlink:href="#ab"/><use transform="matrix(0.05,0,0,0.05,78.85000000000001,0)" xlink:href="#Z"/><use transform="matrix(0.05,0,0,0.05,93.80000000000001,0)" xlink:href="#ae"/><use transform="matrix(0.05,0,0,0.05,103.80000000000001,0)" xlink:href="#Z"/><use transform="matrix(0.05,0,0,0.05,118.75,0)" xlink:href="#ac"/><use transform="matrix(0.05,0,0,0.05,128.75,0)" xlink:href="#aZ"/><use transform="matrix(0.05,0,0,0.05,138.75,0)" xlink:href="#an"/><use transform="matrix(0.05,0,0,0.05,143.75,0)" xlink:href="#ai"/></g></defs></g></svg>